<?xml version="1.0" encoding="UTF-8"?>
<!DOCTYPE svg PUBLIC "-//W3C//DTD SVG 1.1//EN" "http://www.w3.org/Graphics/SVG/1.1/DTD/svg11.dtd">
<!-- Creator: CorelDRAW Home & Student 2014 -->
<svg xmlns="http://www.w3.org/2000/svg" xml:space="preserve" width="30cm" height="30cm" version="1.1" style="shape-rendering:geometricPrecision; text-rendering:geometricPrecision; image-rendering:optimizeQuality; fill-rule:evenodd; clip-rule:evenodd"
viewBox="0 0 30000 30000"
 xmlns:xlink="http://www.w3.org/1999/xlink">
 <defs>
  <style type="text/css">
   <![CDATA[
    .fil0 {fill:none}
    .fil1 {fill:black}
    .fil2 {fill:#818181}
    .fil3 {fill:black;fill-rule:nonzero}
   ]]>
  </style>
 </defs>
 <g id="Warstwa_x0020_1">
  <metadata id="CorelCorpID_0Corel-Layer"/>
  <circle class="fil0" cx="15000" cy="15000" r="12614"/>
  <g id="_400509176">
   <path class="fil1" d="M16547 14918c62,-442 1298,-357 1614,-317 792,102 -350,-609 -554,-775 -910,-738 -1195,-1297 -1737,-2286 -931,-1698 140,-4702 2132,-5237 2011,-539 2124,869 2804,965 751,106 2112,1211 2034,1989 -44,441 -404,-18 -525,-112 -717,-558 -1585,-566 -2466,-495 -2161,172 -1965,1887 -1458,1937 166,-56 322,-395 703,-519 974,-316 2140,-36 3016,366 1407,645 1681,1104 2462,2382 765,1253 1030,2297 1067,3772 22,869 333,1424 -556,1771 -250,97 -1643,599 -1740,664 -94,827 -134,2571 -823,3177 -221,195 -3375,438 -3490,368 -231,-324 529,-999 739,-1241 361,-416 606,-697 881,-1182 256,-452 1123,-2817 912,-3133 -159,-108 -332,23 -502,-101 -128,-95 -109,-317 -188,-475 -117,-233 -577,-411 -821,-476 -598,-159 -778,165 -1074,71 -431,-136 -501,-431 -637,-655 -296,124 -775,432 -1092,265 -177,-93 -246,-234 -304,-410 -104,-312 -248,-86 -397,-313zm7086 4532c95,-121 1371,-548 1632,-671 855,-404 803,-649 748,-1476 -109,-1620 -123,-2358 -748,-3884 -916,-2237 -3030,-3932 -5509,-3697 -389,37 -588,49 -968,177 -681,230 -255,-977 1985,-884 889,37 978,194 1631,675 787,580 879,-491 542,-1071 -886,-1527 -1603,-1118 -2596,-2034 -957,-884 -2379,-821 -3411,-74 -888,643 -1471,1988 -1576,3055 -175,1780 104,2069 1003,3491 246,389 1220,976 753,1228 -312,169 -1519,148 -688,1167 853,1044 2700,593 3561,1096 510,297 1086,629 1044,1258 -32,483 -274,1401 -498,1829 -300,576 -546,861 -984,1319 -268,280 -927,969 -986,1341 -143,912 941,683 1550,630 700,-61 1402,-123 2096,-237 863,-141 798,-493 1048,-1281 98,-310 168,-605 244,-921 59,-248 90,-950 127,-1036z"/>
   <path class="fil1" d="M7250 9444c-530,-366 691,-1583 999,-1806 468,-339 793,-256 1122,-414 86,-41 417,-543 779,-755 1530,-893 3120,238 3817,1628 860,1714 492,3188 -572,4659 -468,646 -958,1016 -1569,1502 -707,562 91,286 505,293 242,4 1091,55 1070,406 -169,214 -252,-94 -377,314 -50,163 -157,298 -317,370 -412,188 -725,-189 -1041,-241 -4,3 -169,250 -263,340 -699,663 -776,3 -1436,203 -191,59 -773,296 -865,460 -105,188 18,332 -172,491 -215,182 -294,-17 -494,87 -274,284 613,2699 862,3142 279,496 1856,2135 1663,2426 -235,162 -3296,-155 -3512,-364 -259,-251 -512,-1011 -614,-1371 -156,-550 -135,-1551 -211,-1776 -66,-70 -1511,-573 -1754,-678 -853,-371 -588,-935 -526,-1796 123,-1722 188,-2279 1067,-3773 872,-1483 1005,-1580 2490,-2378 527,-283 1372,-511 1966,-470 293,20 812,54 1074,149 295,106 499,463 692,471 513,-181 212,-1021 -10,-1337 -467,-666 -2395,-698 -3149,-489 -378,104 -1198,705 -1224,707zm3820 -3498c-740,155 -1003,207 -1545,745 -481,477 -1003,446 -1514,815 -1453,1049 -1527,3066 -359,2100 914,-756 2611,-854 3614,-163 259,178 320,631 -201,428 -317,-124 -672,-145 -1011,-152 -871,-18 -1188,-3 -2001,316 -1189,466 -1892,964 -2578,2053 -1398,2221 -1383,2973 -1520,5428 -45,804 130,1032 934,1328 286,105 540,224 839,325 387,132 620,93 630,541 16,710 268,1243 418,1904 198,875 340,980 1198,1105 643,94 1462,192 2108,224 515,25 1754,150 1255,-810 -300,-577 -620,-830 -1038,-1290 -755,-828 -1430,-2102 -1375,-3248 19,-404 835,-967 1192,-1131 194,-89 1642,-260 1999,-330 628,-124 1113,-236 1506,-796 691,-983 -762,-925 -891,-1172 -81,-156 793,-1002 989,-1270 324,-447 619,-1009 797,-1532 399,-1179 65,-2647 -531,-3707 -531,-944 -1780,-1949 -2915,-1711z"/>
   <path class="fil1" d="M10558 14756c-533,-462 -307,-912 -1436,-715 -341,60 -1578,747 -1488,261 120,-651 552,-911 1021,-1231 796,-542 790,-431 1590,-220 1071,282 1053,-325 1578,-554 259,-113 746,-75 1039,-77 553,-2 332,205 113,487 -303,391 -1998,2013 -2417,2049zm2616 -6083c306,-910 -241,-1018 -301,-1433 799,343 1176,1847 1180,2627 3,601 -93,997 -384,1523 -311,563 -427,722 -1127,747 -1131,40 -353,-402 -689,-1109 -140,-293 497,-447 544,-1234 29,-478 591,-570 777,-1121zm-3523 -1424c455,43 616,-590 1360,-742 336,-68 1470,199 1500,548 -541,-146 -601,-772 -1330,-58 -206,201 -401,302 -685,234 -351,-83 -447,47 -763,171 -640,249 -631,-106 -1503,508 -194,137 -956,942 -799,1137 72,9 542,-477 660,-562 582,-417 1534,-379 2203,-369 411,7 998,199 1097,-168l-799 -217 15 -58c136,-94 946,36 972,296 43,432 -715,351 -975,320 -358,-44 -2248,-141 -2290,329 879,-150 2735,-355 3413,451 330,392 530,1154 100,1538 -401,358 271,1079 -244,1661 -432,490 -890,604 -1509,358 -699,-277 -937,-77 -1542,296 -438,270 -808,644 -976,1140 -104,307 -217,1673 -2,1881l1194 -60 -5 -55c140,-602 -2496,-703 84,-1580 497,-168 1128,-252 1345,345 309,853 -839,649 -1045,688 291,885 2613,-1134 3013,-1477 944,-812 1642,-1827 2034,-3020 337,-1025 -322,-3021 -1150,-3754 -901,-798 -2930,-1196 -3373,219z"/>
   <path class="fil1" d="M22297 14489c-145,75 -1313,-484 -1656,-491 -1138,-22 -1021,958 -1420,708 -585,-366 -1965,-1575 -2347,-2132 -329,-478 7,-336 441,-366 246,-17 782,-32 956,134 430,408 987,759 1632,466 667,-302 1007,-87 1584,314 323,225 1048,921 810,1367zm-4227 -2452c-246,197 -1339,138 -1593,-309 -269,-476 -490,-980 -563,-1526 -92,-695 395,-2779 1178,-2952 -124,439 -569,615 -334,1260 272,748 436,558 734,987 218,313 -125,717 523,1196 243,180 91,332 30,603 -70,313 102,592 25,741zm4224 2805l-1140 929 58 122 1223 53c230,-243 80,-1511 -29,-1838 -201,-609 -412,-806 -931,-1159 -1610,-1096 -2062,507 -3057,-622 -505,-573 25,-1368 -190,-1634 -422,-521 -478,-862 -78,-1490 675,-1061 3203,-588 3370,-683 -194,-654 -3218,218 -3130,-588l-22 -86 982 -242 33 130 -801 214 25 96c121,226 1841,4 2286,88 258,48 729,185 941,329 156,107 598,573 697,570 96,-349 -552,-930 -804,-1124 -744,-575 -748,-302 -1484,-501 -358,-97 -376,-236 -779,-171 -304,48 -512,-49 -716,-265 -648,-687 -784,-51 -1277,85 32,-423 1160,-592 1498,-549 708,92 925,832 1346,736 -75,-766 -1444,-1089 -2110,-868 -907,300 -1341,574 -1828,1401 -1062,1804 -744,3153 320,4817 666,1041 3985,3689 4119,2783 31,-210 -398,-31 -608,-73 -479,-98 -550,-658 -246,-979 460,-483 2218,199 2332,519z"/>
   <path class="fil1" d="M7797 14324c132,58 1285,-424 1595,-444 1006,-68 1037,796 1331,713 190,-55 1929,-1689 2169,-1943 423,-448 -802,-477 -1223,-57 -420,418 -968,542 -1548,383 -401,-110 -340,-299 -776,-140 -280,103 -438,174 -682,349 -261,187 -1011,774 -866,1139z"/>
   <path class="fil1" d="M21332 13171c-980,-571 -545,-368 -1427,-200 -495,94 -1266,20 -1607,-392 -294,-355 -1662,-417 -1196,83 251,270 1983,1935 2217,1934 294,-1 103,-808 1322,-712 345,27 1518,481 1561,455 152,-307 -617,-1021 -870,-1168z"/>
   <path class="fil1" d="M17960 10907c-148,-218 -312,-184 -464,-568 -137,-344 32,-567 -240,-819 -844,-780 -403,-755 -744,-1343 -216,81 -387,1164 -416,1407 -62,523 48,1095 261,1575 235,530 382,785 993,831 292,22 614,101 557,-309 -62,-446 67,-533 53,-774z"/>
   <path class="fil1" d="M8453 16400c50,94 162,414 235,462 75,-43 209,-92 250,-167l-121 -352c461,-156 709,-407 1203,-558 759,-231 817,459 1278,-149l-751 -362c163,-119 555,-92 754,-63 96,14 284,68 360,71 358,16 -57,-245 221,-102 177,91 259,313 557,326 214,9 538,-182 415,-415 -377,-719 -2145,-251 -2603,162l183 78c-494,205 -1380,651 -1477,-120l251 -95c96,-143 -84,-401 280,-476 231,-48 408,167 295,380l-252 -29 20 -75 241 22 -149 -236c-56,-11 -192,55 -252,76 -320,781 1124,453 599,-295 -334,-476 -1113,-143 -1556,9 -937,321 -696,452 14,845 1052,584 131,706 5,1063z"/>
   <path class="fil1" d="M13415 8200c-48,46 14,593 -416,1039 -621,643 -281,189 -480,974 -123,484 -569,563 -463,902 171,546 -302,913 403,888 2151,-77 1245,-4080 956,-3803z"/>
   <path class="fil1" d="M19554 11399c588,-227 613,751 20,870 -1252,253 -1216,-1665 85,-1725 928,-43 1138,372 1458,376 463,-607 96,-649 -440,-747 -473,-87 -978,-34 -1448,56 -911,175 -1240,1613 -695,2088 763,665 2120,215 1821,-762 -118,-384 -755,-626 -1085,-332 -150,134 -257,402 -57,552 344,258 272,-241 341,-376z"/>
   <path class="fil1" d="M8845 10885c293,35 650,-447 1445,-350 508,62 917,326 1021,858 107,551 -362,1012 -910,880 -693,-165 -481,-1165 22,-867 74,111 -4,607 320,374 199,-144 113,-411 -43,-547 -326,-285 -928,-66 -1074,295 -381,939 1081,1466 1771,819 593,-555 246,-1870 -577,-2108 -406,-117 -2883,-297 -1975,646z"/>
   <path class="fil1" d="M20489 14730l-309 101 -11 -110 519 -51 53 427 284 90c3,141 -239,435 -358,481 -169,66 -476,-112 -644,-183 -410,-174 -1002,-207 -1340,124 66,549 763,31 1234,166 300,86 985,435 1239,576 -39,143 -259,542 173,476l186 -432c-190,-384 -1019,-490 24,-1077 796,-448 873,-558 -82,-842 -460,-137 -1227,-506 -1525,82 -492,969 1269,665 557,172z"/>
   <path class="fil1" d="M10698 22422c-12,-372 -1398,-1416 -1870,-2860 -107,-328 -735,-2454 -779,-2768 -13,-100 -59,-1044 -374,-658 -287,351 704,3181 916,3690 202,487 528,1096 816,1539 336,518 566,1141 1291,1057z"/>
   <path class="fil1" d="M19304 22384c1013,867 3440,-5651 2996,-6246 -307,-411 -376,581 -385,673 -28,274 -180,648 -254,932 -347,1348 -520,2178 -1361,3348 -146,204 -1059,1128 -996,1293z"/>
   <path class="fil1" d="M22461 18814l377 108c247,-385 422,-4744 41,-4864 -354,-113 -161,816 -148,1022 62,1030 -495,3123 -270,3734z"/>
   <path class="fil1" d="M7544 18788c70,-192 -251,-2933 -316,-3471 -49,-399 121,-960 91,-1124 -569,-763 -448,2145 -444,2342 9,502 85,983 138,1482 25,239 42,1399 531,771z"/>
   <path class="fil1" d="M6365 13492c-536,227 -786,1860 -768,2370 18,490 -232,2690 402,2785 290,44 -8,-990 -25,-1264 -44,-672 -57,-2358 163,-2966 59,-163 692,-1122 228,-925z"/>
   <path class="fil1" d="M23485 13487c-197,84 294,740 377,1016 176,580 166,2315 102,2950 -25,238 -48,479 -76,716 -28,234 -196,608 158,459 427,-181 337,-2399 322,-2860 -12,-344 -337,-2515 -883,-2281z"/>
   <path class="fil1" d="M6771 18783c37,-88 -189,-2357 -205,-2703 -23,-491 10,-903 88,-1385 9,-53 349,-1456 -83,-800 -370,562 -392,1917 -369,2583 17,492 51,873 114,1360 42,316 29,1141 455,945z"/>
   <path class="fil1" d="M23206 18786c477,192 359,-645 435,-995 210,-959 234,-3141 -245,-3909 -130,-209 -330,-150 -220,165 75,214 129,358 160,587 68,508 78,914 60,1425 -12,346 -222,2648 -190,2727z"/>
   <path class="fil1" d="M20259 22314c934,-26 1022,-928 1453,-1690 212,-376 744,-2203 558,-2519 -112,32 -729,1917 -887,2217 -135,256 -1116,1917 -1124,1992z"/>
   <path class="fil1" d="M7675 18079c-278,517 1129,4757 1990,4207 25,-16 -961,-1732 -1088,-1971 -171,-324 -772,-2187 -902,-2236z"/>
   <path class="fil1" d="M22624 13975c282,-41 1351,-1282 1422,-1515 47,-155 -195,-551 -368,-562 -163,-10 -674,834 -910,1023 -117,93 -510,325 -528,448 -16,104 283,548 384,606z"/>
   <path class="fil1" d="M7746 13385c-184,-268 -677,-548 -966,-957 -93,-132 -305,-506 -462,-519 -179,-15 -426,367 -375,558 57,213 684,892 867,1068 462,446 646,661 936,-150z"/>
   <path class="fil1" d="M24089 12711c-213,115 391,848 499,1066 258,515 334,725 432,1291 101,585 109,1006 127,1592 7,228 -97,1597 195,1361 314,-255 28,-2617 -73,-3073 -70,-321 -762,-2463 -1180,-2237z"/>
   <path class="fil1" d="M5957 12857c-264,-424 -600,377 -741,639 -206,385 -384,826 -466,1256 -126,656 -406,2532 -227,3109 105,341 281,276 275,-160 -19,-1269 -43,-2606 514,-3764 69,-143 645,-1077 645,-1080z"/>
   <path class="fil1" d="M24544 18371c512,138 342,-949 342,-1253 0,-541 18,-1076 -36,-1616 -70,-696 -377,-1862 -919,-2346 -246,-220 -247,64 -38,312 122,143 250,318 332,488 224,467 308,773 351,1290 45,534 32,1047 35,1581 2,338 -100,1338 -67,1544z"/>
   <path class="fil1" d="M6051 13122c-493,306 -880,1761 -909,2329 -16,316 -304,3139 220,2919 88,-37 -5,-1264 -8,-1464 -9,-544 16,-1046 44,-1588 27,-522 85,-846 322,-1319 8,-16 845,-1195 331,-877z"/>
   <path class="fil1" d="M19703 15289c-153,-540 -2763,-891 -2615,-68 51,284 379,338 608,250 297,-114 333,-406 490,-245 101,104 570,2 786,-12 314,-21 505,126 731,75z"/>
   <path class="fil1" d="M7452 19019c-331,215 463,3487 1167,3123 132,-68 -523,-1258 -622,-1484 -76,-171 -262,-642 -300,-810 -21,-91 -41,-961 -245,-829z"/>
   <path class="fil1" d="M7953 22103c15,-82 -554,-1274 -629,-1487 -91,-256 -112,-2035 -456,-1560 -310,429 498,3478 1085,3047z"/>
   <path class="fil1" d="M19587 11907c-873,506 -781,-1477 473,-878 457,217 404,766 713,429 378,-414 32,-570 -361,-702 -698,-235 -1839,67 -1592,984 102,379 613,529 916,320 143,-99 197,-414 65,-515 -193,-149 -125,249 -214,362z"/>
   <path class="fil1" d="M9394 11588c252,-173 391,-920 1241,-554 701,302 269,1165 -243,880 -23,-28 -183,-761 -296,-262 -66,296 135,475 411,495 1061,75 876,-1808 -830,-1414 -859,198 -706,792 -283,855z"/>
   <path class="fil1" d="M22912 19020c-143,67 -181,1376 -339,1777 -95,243 -191,531 -298,762 -70,151 -515,747 -56,562 670,-271 1270,-3369 693,-3101z"/>
   <path class="fil1" d="M22407 19080c-73,59 -113,706 -178,898 -190,562 -419,1017 -639,1556 -104,256 -522,625 -135,626 803,3 1406,-3446 952,-3080z"/>
   <path class="fil1" d="M21932 12493c148,48 435,19 469,-178 21,-114 -133,-389 -197,-492 -140,-10 -455,5 -455,185 -1,115 100,416 183,485z"/>
   <path class="fil1" d="M7989 12534c146,-117 234,-418 209,-598 -62,-56 -260,-131 -342,-130 -140,3 -378,488 -242,607 70,62 287,121 375,121z"/>
   <path class="fil1" d="M22067 10685c-296,-304 -612,-320 -677,172 -45,333 756,338 677,-172z"/>
   <path class="fil1" d="M8557 11014c58,-148 -44,-346 -121,-482 -115,-204 -236,-42 -390,52 -173,105 -192,275 -42,408 100,91 442,93 553,22z"/>
   <path class="fil1" d="M6706 11458c-454,250 200,702 222,700 297,-24 141,-901 -222,-700z"/>
   <path class="fil1" d="M23153 11446c-267,79 -216,163 -232,412 -47,738 489,-37 512,-124 38,-146 -119,-337 -280,-288z"/>
   <path class="fil1" d="M7453 11336c-89,36 -216,274 -229,363 -23,159 135,309 287,283 207,-36 355,-815 -58,-646z"/>
   <path class="fil1" d="M22409 11983c174,15 215,-68 351,-149 7,-186 -42,-190 -122,-340 -69,-130 -103,-231 -292,-161 -242,90 -15,492 63,650z"/>
   <path class="fil1" d="M21198 12505c683,-68 402,-619 290,-680 -55,-31 -233,-44 -291,-22 -112,43 -47,105 1,205 173,358 -6,272 0,497z"/>
   <path class="fil1" d="M18753 6634c-45,191 496,640 709,465 263,-216 -517,-587 -709,-465z"/>
   <path class="fil1" d="M8733 12480c23,-229 -143,-140 41,-482 44,-81 102,-157 6,-193 -46,-17 -248,-4 -293,17 -83,41 -194,338 -165,439 40,135 281,224 411,219z"/>
   <path class="fil1" d="M11206 6620c-162,-83 -910,234 -714,454 143,162 479,-47 619,-225 83,-106 125,-111 95,-229z"/>
   <path class="fil1" d="M21310 11197c-23,19 -268,277 -274,287 -151,230 198,197 320,188 504,-35 134,-624 -46,-475z"/>
   <path class="fil1" d="M8954 11650c27,-150 -114,-230 -191,-332 -117,-158 -136,-247 -313,-39 -362,427 346,460 504,371z"/>
   <path class="fil1" d="M21085 12373c154,-227 -79,-507 -316,-573 -126,417 -249,534 46,572 114,14 155,28 270,1z"/>
   <path class="fil1" d="M9312 12328c26,-140 -33,-421 -130,-525 -184,8 -298,206 -334,380 -59,286 291,196 464,145z"/>
   <path class="fil1" d="M21308 12646c85,256 678,502 546,111 -8,-25 -82,-225 -89,-233 -89,-101 -374,36 -457,122z"/>
   <path class="fil1" d="M8162 12978c128,17 468,-216 511,-339 -80,-75 -326,-193 -434,-145 -100,45 -144,369 -77,484z"/>
   <path class="fil1" d="M22000 12709c-25,127 -49,326 18,437 183,94 463,-268 350,-510 -117,-22 -262,23 -368,73z"/>
   <path class="fil1" d="M22637 12070c-160,116 -99,182 -121,388 -15,137 -32,374 175,176 290,-276 147,-708 -54,-564z"/>
   <path class="fil1" d="M7445 12680c38,-109 -8,-257 -14,-379 -9,-166 13,-224 -181,-268 -338,331 28,714 195,647z"/>
   <path class="fil1" d="M7844 11253c120,-114 60,-225 -17,-348 -110,-173 -170,-137 -319,-38 -334,220 226,420 336,386z"/>
   <path class="fil1" d="M7948 13134c42,-86 58,-315 9,-401 -46,-81 -265,-143 -342,-93 -158,102 89,574 333,494z"/>
   <path class="fil1" d="M22072 11217c146,90 145,78 275,-13 79,-56 179,-103 225,-171 -22,-139 -214,-274 -334,-233 -113,39 -191,289 -166,417z"/>
   <path class="fil1" d="M21728 11795c87,-11 344,-90 375,-171 29,-78 -116,-304 -170,-378 -107,-148 -313,-94 -194,113 172,302 1,184 -11,436z"/>
   <path class="fil1" d="M8236 11784c-33,-219 -147,-199 -28,-403 120,-205 0,-280 -163,-138 -319,277 -186,483 191,541z"/>
   <path class="fil1" d="M21549 16070c-16,148 50,112 93,258 45,147 -20,196 114,265 167,-82 152,-723 -207,-523z"/>
   <path class="fil1" d="M7095 11106c-369,186 -61,391 56,354 244,-78 194,-479 -56,-354z"/>
   <path class="fil1" d="M22625 11243l203 222c364,-106 169,-330 21,-372 -115,-33 -179,57 -224,150z"/>
   <path class="fil1" d="M8255 16580c65,-77 30,-153 73,-262 60,-150 128,-96 109,-255 -190,-76 -255,-35 -271,147 -13,135 -63,346 89,370z"/>
   <path class="fil1" d="M12700 14757c21,140 48,141 194,157 99,11 227,34 306,-19 -20,-196 -431,-160 -500,-138z"/>
   <path class="fil1" d="M16762 14908c119,47 476,66 477,-132 -126,-86 -472,-30 -477,132z"/>
   <path class="fil1" d="M18502 15498c134,11 277,-33 397,-95l99 -80c-183,-62 -445,-42 -496,175z"/>
   <path class="fil1" d="M10990 15325c42,103 348,190 441,159 11,-27 21,-6 13,-53 -7,-33 -12,-39 -36,-60 -28,-22 -98,-42 -135,-54 -125,-41 -185,-50 -283,8z"/>
   <path class="fil1" d="M21769 16896c17,-135 -181,-375 -244,-268 -60,101 85,339 244,268z"/>
   <path class="fil1" d="M8425 16631c-138,-7 -291,210 -222,276 81,78 297,-79 222,-276z"/>
   <path class="fil2" d="M26725 7418l1 -39c-26,-32 54,-29 -49,-25l48 64z"/>
  </g>
  <path class="fil3" d="M2279 14656l-272 -20 -1169 -88 -24 363 -144 -313 52 -765c3,-14 5,-28 7,-42 2,-15 5,-29 7,-42 18,-103 56,-197 116,-280 59,-84 135,-126 228,-124 2,0 3,0 5,1 1,0 3,0 4,0 2,0 3,0 5,0 1,0 3,0 4,1 83,6 147,42 194,105 47,64 83,137 108,218l31 104 28 -99c34,-110 85,-208 155,-294 69,-85 158,-126 266,-123 2,0 4,0 6,0 2,0 4,0 6,0 3,1 5,1 6,1 2,0 4,1 7,1 160,11 281,106 362,284 81,177 128,369 142,576 2,44 3,89 2,133 0,45 -2,88 -6,131 -1,9 -1,17 -2,25 -1,7 -1,15 -2,23 -7,108 -15,174 -24,196 -9,24 -41,33 -96,28l-2 0zm-739 -454l-12 93 652 54c2,0 3,0 4,0 1,0 2,0 3,1 0,0 1,0 1,0 1,0 2,0 2,0 3,0 7,0 12,1 6,0 10,0 15,-1 6,-1 12,-2 18,-3 5,-1 10,-3 13,-6 11,-8 18,-20 21,-34 3,-14 5,-30 6,-47 0,0 0,0 0,0 0,0 0,0 0,-2 0,-1 1,-3 1,-6 0,-2 0,-4 0,-5l19 -254c2,-6 3,-12 4,-18 0,-6 0,-12 -1,-19 1,-88 -22,-172 -71,-251 -49,-80 -112,-122 -192,-129 -3,0 -5,0 -7,0 -3,-1 -5,-1 -6,-1 -146,-3 -253,52 -324,164 -71,112 -118,237 -141,374 -3,15 -6,30 -9,44 -2,15 -4,29 -6,45l-2 0zm-140 82l18 -189c2,-11 4,-22 4,-33 0,-12 0,-23 1,-33 1,-83 -13,-161 -42,-235 -30,-73 -85,-118 -166,-134 -2,0 -3,-1 -6,-1 -2,0 -4,-1 -5,-2 -2,-1 -4,-1 -6,-1 -2,0 -4,0 -6,-1 -77,-6 -140,24 -189,91 -48,66 -82,141 -101,226 -3,16 -6,32 -9,48 -3,16 -5,33 -7,49l-16 171 530 44z"/>
  <path id="1" class="fil3" d="M1129 12216l252 61 1143 264 33 316 -360 -79 -1145 -257 -71 318c-5,-13 -10,-24 -15,-35 -4,-12 -9,-23 -14,-33 -2,-5 -4,-11 -6,-17 -2,-6 -4,-12 -8,-17 -3,-8 -5,-18 -9,-27 -3,-9 -6,-19 -8,-29 -5,-14 -9,-27 -12,-39 -4,-13 -6,-25 -9,-36 -2,-10 -4,-20 -7,-31 -2,-11 -4,-22 -6,-33 -1,-5 -1,-11 -2,-16 -1,-6 -2,-11 -2,-16 2,-10 4,-20 6,-29 2,-9 4,-18 6,-27 3,-4 5,-9 6,-14 1,-5 2,-10 3,-14 1,-3 2,-7 3,-10 0,-4 1,-7 2,-10 4,-18 8,-37 13,-55 4,-19 8,-39 11,-60 10,-48 17,-92 22,-131 5,-40 10,-79 14,-117 5,-36 11,-75 16,-115 5,-40 13,-84 22,-130 0,-2 1,-3 1,-3 0,-1 0,-2 0,-4 0,0 1,0 1,-1 0,-1 0,-2 1,-3 7,-33 20,-72 38,-117 18,-45 41,-91 69,-136 44,-73 100,-137 170,-193 71,-55 153,-78 248,-68 6,-1 13,0 18,2 6,1 13,2 18,4 94,21 161,80 202,177 40,96 72,199 96,308 4,15 8,30 10,46 3,15 6,30 9,45l7 42c31,-13 59,-26 85,-38 25,-13 50,-24 73,-36 5,-4 11,-7 17,-9 6,-3 12,-6 17,-9 25,-13 51,-27 77,-41 26,-15 54,-30 85,-47 29,-15 54,-30 77,-43 23,-14 45,-27 67,-41 0,-1 1,-2 2,-3 1,-1 1,-1 1,-1 24,-13 47,-28 71,-42 24,-15 51,-31 79,-48l47 -29c7,-2 12,-4 16,-7 4,-3 8,-5 13,-7 24,-17 45,-35 62,-55 17,-19 30,-44 39,-75 0,-2 1,-3 1,-5 0,-1 0,-3 1,-4 0,-2 0,-3 1,-5 0,-1 1,-3 1,-4 1,-3 1,-6 2,-9 1,-3 1,-6 2,-9 4,-23 5,-46 3,-69 -2,-23 -4,-44 -8,-64 -3,-19 -7,-36 -11,-50 -3,-13 -5,-20 -5,-22l30 -9 37 166c5,15 8,29 12,42 3,14 7,27 12,41 4,16 9,33 14,49 6,16 11,32 15,47 7,30 12,60 15,90 2,31 -1,63 -9,97 0,2 0,4 -1,6 -1,2 -1,4 -1,6 -1,3 -2,5 -2,6 0,2 -1,4 -1,7 -15,50 -41,91 -78,124 -38,33 -76,61 -117,85 -6,3 -13,6 -18,9 -5,2 -11,6 -16,9 -27,14 -52,28 -73,42 -23,14 -44,27 -66,39 0,0 0,0 0,1 0,1 -1,1 -3,1 -22,13 -44,27 -68,42 -24,14 -50,29 -79,46 -12,6 -36,19 -70,37 -33,18 -70,37 -109,58 -2,1 -5,2 -9,4 -3,2 -6,3 -8,4 -44,23 -85,43 -123,60 -37,17 -61,25 -70,25 0,0 0,0 0,0 0,0 -1,-1 -2,-1 0,0 0,0 0,0 0,0 0,0 0,0 -4,-2 -7,-6 -9,-11 -2,-5 -3,-11 -3,-18 -1,-3 -2,-6 -3,-11 -1,-3 -1,-7 -2,-11l-14 -92c1,-9 0,-19 -1,-30 -1,-10 -4,-21 -6,-31 -12,-62 -31,-125 -57,-187 -25,-62 -54,-115 -87,-159 -18,-28 -38,-51 -60,-69 -22,-18 -43,-30 -64,-35 -4,-1 -9,-2 -13,-3 -5,-1 -9,-1 -12,0 -115,2 -208,45 -278,131 -71,85 -123,185 -155,298 -1,5 -2,9 -3,13 -1,3 -2,6 -4,9 -2,4 -2,9 -3,12 -1,4 -2,7 -2,10 -3,9 -4,18 -5,26 -2,9 -3,18 -5,26 -2,14 -3,28 -3,43 0,15 -1,31 -2,48l-2 -1z"/>
  <path id="2" class="fil3" d="M3125 11424l4 2c-8,-31 -16,-58 -24,-82 -9,-24 -18,-47 -27,-70 -6,-16 -12,-33 -19,-49 -7,-17 -13,-33 -20,-47 -11,-24 -23,-47 -35,-70 -12,-22 -26,-47 -40,-74 -11,-21 -21,-40 -31,-57 -10,-16 -20,-31 -30,-46 -2,-3 -5,-5 -6,-8 -3,-3 -5,-6 -6,-10 -14,-20 -31,-43 -50,-70 -19,-26 -44,-61 -75,-104l-193 -275 -60 131 -2 -228 -537 -767c-8,18 -16,35 -24,50 -7,15 -16,29 -24,44 -2,6 -5,11 -8,18 -3,6 -6,12 -9,19 -4,9 -8,17 -12,25 -4,9 -8,18 -12,28 -9,19 -16,37 -23,53 -5,17 -11,33 -17,49 -6,14 -12,29 -16,44 -5,16 -10,32 -17,50 -3,-11 -7,-20 -10,-28 -3,-8 -6,-16 -9,-24 -4,-10 -7,-20 -10,-31 -2,-10 -5,-21 -6,-32 -1,-9 -3,-18 -4,-28 -1,-10 -2,-21 -3,-33 -2,-18 -4,-34 -5,-48 -1,-14 -2,-28 -2,-42 -1,-23 2,-48 8,-73 6,-24 19,-58 39,-101l133 -282 341 -18 1317 -56 84 -181c7,-12 13,-23 17,-32 4,-10 9,-20 14,-30 2,-8 5,-18 8,-27 4,-9 7,-19 10,-29 3,-10 5,-18 7,-25 1,-8 3,-17 4,-26 2,-8 3,-16 4,-24 2,-7 2,-16 4,-26 11,26 21,52 28,79 7,27 12,54 17,81 6,38 9,74 10,107 1,33 1,60 2,80 0,18 -5,42 -15,70 -9,29 -22,59 -37,91 -1,4 -3,8 -5,11 -1,4 -3,7 -5,12 -11,23 -22,46 -35,69 -12,23 -23,43 -33,61 -8,16 -16,29 -23,39 -6,11 -10,17 -11,18l-653 38 -363 761 263 398c12,16 22,31 31,46 9,15 18,31 28,47 17,32 34,65 49,101 16,36 31,74 45,116 9,28 17,54 24,78 8,25 14,49 20,72 8,27 15,54 20,82 5,27 8,57 11,88 0,14 1,28 2,44 1,16 2,32 3,49l-1 2zm-572 -1250l293 -631 -683 36 390 595z"/>
  <path id="3" class="fil3" d="M4581 7318l-3 10 4 -53 26 23 -1 240c2,106 -9,202 -33,286 -23,85 -57,161 -100,229 -22,34 -45,66 -71,97 -26,30 -54,59 -86,86 -41,37 -87,71 -136,102 -50,31 -103,62 -160,91 -144,71 -291,116 -440,133 -148,18 -280,-9 -395,-82 -5,-3 -10,-6 -14,-9 -5,-3 -10,-6 -15,-9 -4,-3 -8,-6 -12,-10 -4,-3 -9,-6 -14,-9 -68,-55 -129,-116 -182,-185 -52,-68 -91,-130 -115,-186 -5,-10 -8,-19 -12,-28 -3,-10 -5,-19 -7,-27 -2,-3 4,-25 20,-68 15,-42 29,-88 43,-139 6,-23 11,-46 16,-67 4,-22 8,-42 12,-62 1,-11 3,-24 4,-37 1,-13 2,-26 4,-39 -1,-14 -1,-27 -1,-40 0,-14 0,-27 -1,-40 0,-45 -1,-86 -4,-122 -2,-36 -2,-57 2,-64 13,-25 26,-51 42,-80 16,-29 33,-58 51,-86 20,-33 42,-65 66,-98 23,-33 47,-66 72,-99 92,-120 185,-225 279,-316 94,-92 158,-134 193,-126 2,0 4,0 4,0 1,1 2,1 3,2 2,1 3,2 5,3 2,1 4,2 5,3 13,8 23,18 30,28 7,11 13,23 18,38l76 235c4,6 6,11 8,16 1,5 3,10 4,16 2,3 4,6 5,10 1,4 3,7 4,10 5,13 7,25 8,35 0,11 -3,17 -10,20 -2,1 -6,-2 -12,-9 -6,-6 -13,-15 -21,-25 -3,-4 -7,-8 -12,-13 -5,-5 -9,-10 -14,-14 -4,-3 -7,-6 -10,-8 -3,-3 -6,-6 -10,-8 -2,-1 -4,-3 -6,-4 -2,-2 -4,-2 -5,-3 -36,-14 -76,-7 -122,18 -45,25 -89,57 -130,96 -13,12 -25,24 -37,38 -12,13 -23,26 -34,39l-243 303c-11,14 -22,29 -32,45 -11,16 -22,32 -33,49 -1,1 -1,2 -2,4 -1,1 -2,2 -3,4 -34,54 -61,109 -80,164 -19,56 -21,100 -6,130 46,95 97,174 150,237 53,63 108,112 165,148 122,77 248,102 381,76 132,-27 261,-80 386,-160l246 -161c23,-13 43,-26 61,-41 18,-14 35,-28 51,-43 15,-14 29,-30 42,-47 13,-16 26,-35 39,-54 2,-4 5,-7 7,-11 3,-4 4,-9 5,-13 2,-3 4,-6 7,-10 2,-4 5,-8 7,-11 19,-36 33,-69 43,-100 9,-31 16,-62 20,-94 2,-24 5,-48 7,-73 2,-25 4,-51 5,-79l-2 -2z"/>
  <path id="4" class="fil3" d="M4164 6150l52 -300 -375 421c5,-24 9,-47 13,-68 4,-20 8,-41 12,-62 0,-8 1,-16 4,-24 2,-8 3,-17 5,-26 3,-15 7,-31 11,-47 5,-17 9,-35 14,-55 19,-71 31,-130 36,-177 6,-48 14,-77 23,-87 2,-3 3,-4 5,-5 2,0 4,0 7,0 5,2 8,7 10,15 3,8 4,18 5,28 0,5 0,9 0,14 0,5 0,11 0,17 0,4 -1,7 -1,12 0,5 -1,10 -2,13l-5 41c51,-47 96,-91 134,-131 39,-40 77,-81 114,-121 13,-15 27,-31 41,-46 15,-16 29,-32 43,-48 25,-27 50,-54 76,-83 25,-28 53,-58 82,-89 34,-38 66,-73 96,-107 30,-33 58,-65 84,-95 83,-96 148,-175 194,-237 46,-62 81,-111 103,-149 20,-32 33,-57 38,-72 5,-16 9,-25 11,-27 -4,26 -9,51 -12,75 -3,23 -7,46 -12,68 -7,32 -16,63 -27,94 -12,30 -26,63 -45,98 -41,81 -91,159 -148,233 -57,75 -123,155 -197,240l-259 297c-1,6 -1,11 -3,16 -1,5 -3,10 -5,14 -5,18 -9,35 -12,53 -3,18 -2,36 3,57 8,41 37,95 86,162 50,67 110,131 182,193 4,4 9,8 14,12 4,4 9,8 13,12 42,34 85,64 130,92 45,28 90,50 136,67 24,9 65,10 123,3 57,-7 122,-20 196,-39 55,-15 112,-34 171,-56 60,-22 118,-47 173,-74 55,-28 107,-59 154,-91 48,-31 87,-65 118,-101 5,-5 10,-11 15,-17 5,-6 8,-11 12,-17 29,-43 51,-87 66,-132 15,-44 26,-85 33,-124 7,-45 11,-83 13,-115 2,-31 6,-51 12,-60 1,-2 1,-2 2,-3 0,-1 2,-1 4,-1 16,-4 25,21 28,77 2,55 -3,124 -15,206 -7,45 -16,92 -27,141 -11,49 -24,97 -40,143 -16,49 -35,94 -56,135 -21,41 -45,77 -71,107 0,0 0,0 -1,1 0,0 -1,1 -2,2 -1,1 -2,3 -2,3 -1,1 -1,1 -1,1 -31,33 -67,65 -108,95 -40,29 -84,56 -133,82 -79,40 -164,74 -254,102 -91,28 -176,47 -257,59 -67,8 -128,10 -183,7 -55,-3 -97,-13 -127,-30 -9,-6 -23,-14 -43,-24 -19,-10 -43,-22 -70,-38 -33,-18 -69,-40 -108,-66 -39,-25 -77,-54 -113,-85 -1,-1 -2,-2 -4,-4 -2,-1 -4,-3 -6,-5 -54,-49 -100,-104 -137,-167 -37,-62 -49,-129 -35,-202l-1 -1z"/>
  <path id="5" class="fil3" d="M7626 4546l-107 -11 -113 232c-3,9 -10,27 -23,53 -12,26 -28,55 -47,88 -17,27 -36,55 -57,85 -21,29 -44,57 -69,82 -9,11 -19,20 -29,30 -11,9 -21,18 -33,26 -1,1 -3,2 -5,4 -3,2 -5,3 -6,4 -3,0 -6,2 -8,3 -1,1 -3,3 -6,4 -70,42 -138,68 -202,80 -65,12 -137,12 -215,-2 -3,0 -6,0 -9,0 -4,-1 -7,-2 -10,-3l-380 -73c-4,0 -8,0 -12,-1 -4,0 -9,-2 -14,-4 -53,-12 -110,-36 -171,-71 -61,-35 -113,-83 -156,-142 -27,-39 -48,-80 -62,-125 -13,-45 -23,-88 -30,-128 -2,-16 -3,-31 -5,-46 -1,-15 -2,-29 -4,-41l-35 -413c-16,9 -32,19 -48,28 -16,9 -32,18 -46,29 -9,4 -16,9 -24,14 -8,5 -15,11 -22,16 -10,7 -21,15 -32,23 -11,8 -22,17 -34,27 -12,11 -22,20 -32,30 -11,9 -21,19 -30,29 -10,9 -20,19 -29,29 -8,10 -18,22 -29,36 0,-10 2,-25 5,-44 3,-19 8,-40 15,-61 2,-13 5,-26 9,-38 5,-13 9,-25 13,-37 1,-2 2,-3 3,-4 1,-2 2,-3 2,-6 5,-13 10,-25 13,-36 4,-11 8,-21 13,-30 5,-13 12,-26 22,-39 10,-13 25,-26 45,-41l288 -211c2,1 4,1 4,0 1,-1 2,-1 3,-2 0,0 0,0 1,0 1,-1 2,-2 3,-3 5,-3 10,-6 14,-9 5,-2 11,-2 17,1 7,3 11,8 12,15 1,8 1,17 1,27 -1,2 -1,5 -1,9 0,4 0,7 1,10l32 280c4,24 8,48 12,73 4,25 9,50 15,74 13,60 29,116 47,167 18,51 33,86 44,104 2,3 4,5 6,8 2,3 4,6 6,9 36,51 76,91 120,121 43,30 94,53 153,69 6,1 13,2 21,4 7,1 14,3 22,5l256 49c39,10 78,16 116,17 38,2 75,2 110,-2 64,-4 122,-14 174,-29 52,-15 90,-30 116,-47 4,-3 7,-5 11,-8 4,-3 8,-5 11,-8 21,-15 41,-33 61,-53 20,-19 38,-42 56,-68 7,-8 13,-18 19,-30 7,-10 12,-21 17,-33l47 -110 -292 -77c-18,-3 -34,-7 -50,-13 -16,-5 -32,-10 -48,-16 -42,-17 -80,-37 -114,-62 -34,-25 -66,-58 -98,-99 -23,-32 -40,-63 -51,-94 -11,-31 -20,-63 -26,-96 -4,-26 -7,-52 -10,-80 -4,-28 -7,-58 -11,-89l-50 -371c-5,6 -10,11 -16,15 -6,4 -12,7 -19,10 -5,4 -10,8 -16,12 -5,4 -11,8 -16,11 -5,4 -9,7 -14,10 -4,3 -8,7 -13,10 -14,10 -28,20 -41,30 -14,10 -30,21 -48,32 -6,4 -13,9 -19,13 -6,5 -12,9 -19,13 -3,3 -6,5 -9,7 -2,2 -5,4 -9,7 -9,6 -17,12 -25,18 -8,6 -16,11 -24,17 -16,14 -33,27 -51,41 -18,15 -38,30 -60,47l88 -204c4,-7 8,-13 12,-20 4,-6 7,-13 10,-19 5,-9 11,-18 18,-27 6,-8 14,-17 22,-27 7,-7 13,-13 17,-18 5,-5 10,-11 15,-17 6,-4 12,-8 17,-13 5,-5 11,-10 19,-15l350 -256 38 355c1,4 2,9 3,13 0,5 0,9 1,12 2,29 4,56 5,83 1,27 3,51 7,75 4,37 11,72 21,105 10,34 27,66 50,99 2,2 4,5 5,7 2,3 4,4 7,6 2,3 4,5 6,8 2,2 3,4 5,7 23,27 46,49 67,68 22,18 46,34 74,48 11,5 23,11 35,16 12,5 26,10 40,14l212 63c67,21 135,35 204,42 70,6 137,7 201,2 55,-6 105,-15 153,-30 47,-14 87,-33 119,-56 1,-1 2,-1 3,-2 0,0 1,-1 2,-2 44,-33 80,-67 109,-100 29,-33 54,-71 73,-114 8,-16 14,-33 21,-51 7,-18 14,-37 20,-57l-17 -24 -687 -952c-13,11 -25,21 -37,28 -12,7 -23,15 -34,23 -13,8 -26,16 -38,25 -13,9 -27,19 -41,30 -13,8 -26,18 -40,29 -13,11 -28,22 -43,33 -11,8 -22,16 -33,25 -12,10 -23,18 -34,26 -23,18 -42,34 -58,48 -16,13 -24,19 -24,19l124 -258c3,-5 6,-9 9,-12 3,-4 5,-8 8,-12 2,-5 5,-10 9,-15 4,-5 9,-10 14,-16 2,-3 4,-5 7,-7 2,-2 4,-4 6,-7 5,-4 9,-8 14,-12 4,-4 9,-8 14,-12l343 -250 191 266 687 952 352 -257 -92 225c-3,10 -6,18 -9,25 -3,7 -6,13 -10,20 -4,9 -10,18 -16,27 -7,10 -14,19 -22,29 -7,7 -13,13 -19,19 -6,6 -11,12 -17,18 -6,7 -13,12 -20,17 -7,5 -14,10 -21,15l-273 206 -154 -209 -132 288c-12,30 -24,56 -36,81 -11,24 -24,48 -37,71 -16,28 -33,54 -53,76 -19,23 -44,44 -72,65 -2,2 -5,3 -7,5 -3,2 -5,4 -8,5 -5,2 -8,4 -11,6 -2,1 -5,3 -7,5 -43,27 -84,45 -126,55 -40,10 -83,14 -126,14 -23,-1 -47,-1 -70,-2 -23,-1 -48,-3 -74,-5l-1 -2z"/>
  <path id="6" class="fil3" d="M9856 1669l-4 3c188,-14 357,20 509,104 152,85 262,215 332,391 0,2 1,3 2,5 1,2 1,4 2,6 1,3 2,5 2,6 1,2 2,4 3,7 44,115 66,226 66,333 -1,107 -38,211 -112,313l-227 313c-45,65 -95,118 -149,160 -54,43 -112,75 -175,100 -60,22 -124,38 -191,44 -67,7 -137,7 -212,0 -156,-19 -291,-72 -404,-160 -113,-89 -197,-203 -251,-342 -9,-24 -17,-49 -25,-73 -8,-24 -14,-48 -18,-73 -26,-121 -32,-231 -18,-331 13,-99 58,-196 134,-293l232 -297c24,-30 57,-57 98,-84 40,-26 87,-49 138,-69 30,-11 61,-22 95,-31 33,-10 67,-17 103,-23 11,-1 23,-2 35,-3 13,-2 24,-3 35,-4l0 -2zm-426 1313l3 1c15,20 45,40 88,61 43,20 95,39 157,56 68,18 143,32 224,41 81,10 162,11 241,3 31,-3 62,-9 92,-15 30,-7 59,-15 86,-26 43,-16 82,-38 117,-66 35,-27 64,-62 86,-103 24,-47 33,-116 26,-206 -7,-91 -29,-185 -66,-282 -6,-14 -12,-28 -18,-43 -7,-15 -14,-29 -20,-43 -33,-69 -74,-133 -121,-193 -48,-59 -103,-107 -166,-143 -66,-39 -140,-63 -224,-73 -84,-9 -167,-9 -248,1 -58,6 -114,15 -167,29 -53,13 -100,27 -142,43 -40,15 -73,31 -99,47 -27,16 -45,31 -55,44 -31,45 -42,124 -33,237 10,114 38,229 83,348 3,7 6,14 9,21 3,7 6,15 9,24 18,43 39,85 62,126 23,40 48,78 76,113l0 -2z"/>
  <path id="7" class="fil3" d="M13857 2261l-86 -64 -216 139c-7,7 -23,18 -47,34 -24,16 -53,33 -87,50 -28,15 -58,29 -92,44 -33,14 -67,25 -101,34 -14,5 -28,8 -41,11 -14,2 -27,4 -41,5 -2,0 -4,1 -7,1 -3,0 -5,0 -7,0 -3,-1 -6,-1 -8,-1 -2,0 -5,0 -8,0 -81,-1 -153,-13 -215,-36 -61,-23 -122,-61 -181,-113 -3,-1 -6,-3 -9,-5 -2,-2 -4,-5 -6,-8l-288 -259c-3,-2 -6,-4 -10,-6 -3,-3 -6,-7 -10,-11 -38,-38 -74,-88 -108,-150 -35,-61 -55,-129 -61,-202 -4,-47 0,-94 12,-139 12,-45 25,-87 40,-125 7,-14 14,-28 20,-42 7,-14 12,-26 18,-37l184 -372c-19,0 -38,0 -56,-1 -18,-1 -37,0 -55,1 -9,-1 -19,0 -27,0 -10,1 -19,2 -28,2 -12,1 -25,2 -39,4 -14,1 -28,3 -43,5 -15,3 -29,6 -43,9 -14,2 -27,6 -41,10 -13,2 -26,6 -39,10 -13,4 -27,9 -44,15 6,-8 15,-20 28,-34 12,-15 27,-30 44,-46 8,-9 17,-19 28,-27 10,-9 20,-17 30,-25 1,-1 3,-1 4,-2 2,-1 3,-2 4,-4 12,-8 22,-16 31,-24 8,-8 17,-14 26,-19 11,-9 25,-17 39,-22 15,-6 35,-10 59,-12l357 -31c1,1 2,2 3,2 1,0 2,0 3,-1 0,0 1,0 2,0 0,0 2,0 3,0 6,0 12,0 17,0 6,0 10,3 14,9 5,6 6,13 2,19 -3,8 -7,15 -12,23 -2,2 -4,5 -6,8 -2,3 -3,6 -5,9l-117 256c-9,22 -18,45 -28,69 -9,24 -17,47 -25,71 -20,58 -35,114 -46,167 -11,53 -17,90 -16,112 0,3 0,6 0,10 1,4 1,7 1,10 6,63 19,118 40,166 22,48 54,94 95,139 5,4 11,8 17,13 5,5 11,10 16,16l193 175c29,29 59,53 90,75 32,21 64,39 96,55 57,29 112,51 164,65 51,14 93,21 123,20 5,-1 9,-1 14,-1 5,0 9,-1 14,-1 26,-2 52,-7 79,-14 27,-6 55,-17 83,-29 10,-4 21,-10 32,-16 11,-6 22,-13 32,-20l97 -70 -210 -217c-13,-11 -26,-23 -37,-36 -11,-13 -21,-26 -31,-39 -28,-36 -50,-73 -66,-112 -16,-39 -27,-84 -33,-135 -3,-40 -1,-76 5,-108 7,-32 16,-64 27,-95 10,-24 21,-49 33,-74 12,-26 24,-53 37,-81l149 -344c-7,2 -15,4 -21,4 -7,1 -14,1 -22,0 -6,1 -13,1 -20,1 -7,1 -13,2 -19,2 -6,0 -12,1 -17,1 -5,1 -11,1 -17,2 -17,1 -34,2 -51,4 -16,1 -35,2 -57,2 -8,1 -15,2 -23,2 -7,1 -15,2 -22,2 -5,0 -9,1 -12,1 -3,0 -7,1 -11,1 -11,1 -21,2 -31,3 -10,0 -20,1 -29,2 -21,3 -43,6 -66,8 -22,3 -48,6 -75,10l181 -129c7,-4 14,-8 21,-12 6,-3 12,-7 18,-10 9,-6 19,-10 29,-14 10,-4 22,-8 33,-12 10,-2 17,-4 24,-7 7,-2 14,-4 21,-6 8,0 15,-2 22,-3 7,-1 15,-2 24,-3l431 -37 -150 322c-2,5 -3,10 -5,14 -2,4 -4,7 -5,10 -13,26 -26,50 -39,74 -12,23 -23,46 -32,68 -16,33 -28,67 -37,101 -9,33 -11,70 -8,109 0,3 0,7 1,10 0,3 1,6 3,9 0,3 0,6 1,9 0,3 0,6 0,9 6,35 13,65 23,92 9,27 21,54 37,80 7,10 15,21 22,32 8,11 17,22 27,33l149 163c46,53 97,100 153,141 56,42 113,77 171,106 49,24 98,42 146,54 47,12 91,17 131,13 1,0 2,0 3,0 1,0 2,0 3,0 55,-6 104,-16 145,-29 42,-13 83,-33 122,-59 14,-11 29,-22 45,-34 15,-12 30,-25 46,-38l-3 -30 -95 -1170c-16,3 -32,5 -45,5 -14,0 -28,1 -42,2 -15,0 -30,0 -46,2 -15,1 -31,2 -50,4 -15,1 -31,3 -49,5 -17,2 -35,4 -53,5 -14,1 -28,3 -42,5 -15,2 -29,3 -43,4 -28,4 -53,8 -73,11 -21,3 -31,5 -31,5l240 -158c4,-2 9,-3 13,-5 5,-2 9,-4 14,-6 4,-4 9,-6 15,-8 6,-2 13,-4 20,-7 3,-1 6,-2 9,-3 3,0 6,-1 9,-2 6,-1 13,-2 18,-3 6,-1 12,-2 19,-3l422 -37 27 327 95 1170 434 -37 -195 145c-8,6 -14,11 -21,16 -6,4 -13,8 -19,12 -8,5 -18,10 -28,15 -10,4 -22,9 -34,13 -9,2 -17,4 -26,7 -8,2 -16,4 -23,6 -9,2 -18,4 -26,5 -9,0 -17,1 -27,2l-340 34 -23 -258 -261 178c-26,19 -51,36 -73,51 -23,14 -46,28 -69,41 -28,16 -56,29 -85,38 -28,9 -60,15 -95,18 -3,0 -6,1 -9,1 -3,0 -6,0 -9,0 -5,-1 -9,-1 -12,-1 -3,0 -6,0 -9,1 -50,1 -96,-5 -136,-18 -40,-13 -79,-31 -116,-54 -19,-12 -39,-25 -58,-38 -19,-12 -40,-26 -61,-42l0 -2z"/>
  <path id="8" class="fil3" d="M17182 872l-5 2c172,76 304,188 397,334 94,146 128,313 105,502 0,1 0,3 -1,5 0,2 -1,4 -1,6 0,3 0,5 0,7 -1,1 -1,3 -2,6 -16,123 -49,231 -101,324 -52,93 -134,167 -248,222l-348 166c-71,36 -140,59 -208,70 -67,11 -135,12 -201,3 -64,-8 -127,-25 -189,-51 -62,-26 -124,-60 -186,-102 -128,-92 -221,-203 -278,-334 -58,-132 -76,-272 -57,-420 4,-26 8,-51 13,-76 4,-25 11,-49 18,-72 36,-119 84,-219 143,-300 59,-80 145,-145 258,-193l345 -151c36,-14 78,-22 127,-26 48,-3 99,-2 154,5 31,5 64,11 98,18 33,8 67,18 101,30 10,4 21,9 33,13 12,5 23,10 33,14l0 -2zm-1002 949l3 2c4,25 20,57 48,96 28,38 66,80 112,124 51,49 109,96 176,144 67,47 137,87 210,118 29,11 59,21 88,30 30,9 59,15 88,18 46,6 90,6 134,-1 44,-8 86,-24 125,-50 44,-30 84,-86 121,-169 38,-83 63,-176 77,-278 2,-16 3,-31 5,-47 1,-16 2,-32 2,-47 4,-77 0,-153 -13,-227 -14,-75 -39,-144 -77,-206 -40,-65 -94,-122 -163,-170 -68,-49 -141,-88 -217,-118 -54,-23 -108,-41 -161,-55 -53,-14 -101,-24 -145,-29 -42,-6 -79,-8 -110,-7 -31,1 -54,6 -69,13 -49,24 -97,88 -142,192 -45,105 -76,219 -93,345 -1,8 -2,15 -3,23 -1,8 -2,16 -3,25 -5,47 -7,94 -6,140 1,46 5,92 13,136l0 -2z"/>
  <path id="9" class="fil3" d="M18229 2850l2 -1c-38,17 -72,35 -101,54 -30,18 -59,37 -86,55 -29,18 -59,37 -88,56 -30,19 -64,37 -102,53 -23,9 -43,19 -62,28 -19,10 -37,19 -55,28 -24,11 -50,21 -76,29 -26,8 -55,14 -87,18 -39,3 -32,-6 19,-29 52,-22 114,-55 186,-96 36,-21 72,-45 108,-71 36,-26 67,-54 92,-82 4,-3 7,-5 9,-9 2,-3 5,-6 7,-9 11,-15 22,-29 32,-43 10,-14 20,-29 30,-44 27,-41 50,-85 71,-133 21,-48 37,-101 49,-161l13 -68 255 -1146 -422 -97 318 -103 449 104 -102 442 -264 1143c-16,8 -30,14 -43,19 -13,4 -26,9 -38,14 -5,3 -9,4 -14,6 -4,1 -8,3 -11,5 -14,5 -28,10 -42,16 -14,7 -30,14 -47,22zm514 -2168l3 -3 86 151c0,3 1,6 3,9 2,3 3,5 5,7 1,2 1,3 2,4 1,1 1,1 1,1 6,10 11,18 15,27 4,9 6,16 7,21 1,4 -3,10 -11,15 -7,5 -16,11 -25,17 -2,1 -3,2 -5,3 -2,1 -4,2 -5,3 -4,3 -8,5 -10,7 -3,1 -6,3 -10,3l-164 92c-2,2 -4,4 -5,4 -1,1 -2,2 -4,3 -1,0 -2,0 -4,0 0,1 -2,2 -3,3 -6,3 -11,6 -16,7 -5,1 -10,2 -15,2 -3,0 -6,-2 -8,-4 -3,-2 -5,-5 -8,-9 -1,-1 -2,-3 -3,-5 -1,-2 -2,-4 -3,-6 -3,-2 -5,-4 -6,-7 -1,-2 -2,-5 -3,-7l-95 -160c-1,-1 -3,-2 -4,-3 -1,-2 -2,-4 -3,-6 0,0 -1,0 -1,-1 -1,-1 -1,-2 -1,-2 -6,-7 -11,-16 -16,-24 -4,-9 -4,-19 -2,-29 0,-2 1,-3 1,-5 0,-1 1,-3 1,-4 0,0 0,-1 2,-2 1,-1 2,-3 2,-4 2,-3 8,-7 18,-14 10,-6 22,-13 34,-21 2,-1 4,-2 6,-4 2,-1 3,-2 5,-3 4,-2 8,-5 14,-8 5,-2 10,-5 13,-7l113 -61c2,0 4,-1 7,-2 2,-2 5,-3 9,-4 0,-1 1,-2 3,-3 1,0 2,-1 3,-3 7,-3 14,-6 22,-8 7,-3 14,-5 18,-3 0,0 0,0 0,0 0,0 1,0 2,0 0,0 0,0 0,0 0,0 0,0 0,0 3,1 7,3 10,6 3,3 6,7 10,13 1,2 3,4 5,8 2,3 4,7 7,11 -1,1 -1,3 0,4 1,0 1,2 2,4l1 -3z"/>
  <path id="10" class="fil3" d="M20299 1708l-6 1c149,115 252,254 308,418 56,165 51,335 -16,512 -1,2 -1,4 -2,6 -1,2 -2,4 -2,5 -1,3 -2,5 -3,6 0,2 -1,4 -2,7 -45,115 -103,212 -175,291 -72,78 -170,131 -293,157l-377 80c-77,18 -150,24 -219,19 -68,-5 -134,-20 -196,-44 -60,-23 -117,-55 -172,-94 -54,-40 -106,-88 -157,-143 -103,-119 -167,-249 -192,-390 -25,-141 -10,-282 44,-422 9,-24 19,-48 30,-71 10,-22 22,-45 35,-66 63,-106 132,-192 209,-257 76,-64 175,-107 296,-127l372 -66c37,-5 80,-3 128,5 48,7 97,21 149,41 30,11 60,25 91,40 31,15 61,33 91,53 9,7 19,13 29,21 10,7 20,14 29,21l1 -3zm-1197 688l2 3c-2,25 6,60 24,104 19,44 45,93 80,147 38,59 83,119 137,181 54,62 113,117 177,164 26,18 52,35 79,50 26,15 53,28 81,39 42,16 86,26 131,30 44,3 88,-4 132,-19 50,-19 102,-64 158,-136 55,-72 102,-156 139,-253 6,-14 11,-29 16,-44 5,-15 10,-30 14,-45 22,-74 35,-149 40,-224 5,-76 -4,-149 -27,-218 -22,-73 -62,-141 -117,-204 -56,-63 -117,-118 -185,-166 -46,-34 -94,-65 -142,-91 -48,-25 -93,-47 -134,-62 -40,-16 -76,-26 -106,-33 -30,-5 -54,-7 -70,-3 -54,12 -115,63 -183,154 -69,90 -126,195 -172,313 -2,7 -5,14 -8,22 -3,6 -6,15 -9,23 -16,45 -29,90 -39,135 -10,45 -16,90 -19,135l1 -2z"/>
  <path id="11" class="fil3" d="M21905 4234l-30 -103 -256 -19c-10,1 -29,1 -58,-1 -29,-2 -62,-6 -100,-12 -31,-5 -64,-12 -99,-21 -35,-9 -69,-20 -102,-33 -13,-5 -26,-11 -39,-17 -12,-6 -24,-12 -36,-20 -1,0 -3,-2 -6,-3 -2,-2 -4,-3 -5,-4 -2,-3 -4,-5 -6,-6 -2,-1 -4,-3 -7,-4 -64,-51 -114,-103 -149,-159 -35,-56 -61,-122 -77,-199 -2,-3 -3,-6 -3,-10 -1,-3 -2,-6 -1,-9l-74 -381c-2,-3 -3,-6 -4,-10 -1,-5 -1,-10 -2,-15 -7,-54 -6,-115 4,-185 10,-70 34,-136 73,-197 26,-41 57,-75 93,-105 37,-29 73,-54 108,-75 14,-7 28,-15 41,-22 13,-7 25,-13 36,-19l370 -186c-14,-11 -29,-22 -43,-34 -14,-12 -29,-23 -44,-32 -7,-7 -15,-12 -22,-17 -8,-5 -16,-10 -24,-15 -10,-6 -21,-13 -33,-20 -11,-8 -24,-15 -38,-22 -14,-7 -27,-13 -39,-19 -12,-6 -25,-12 -39,-17 -12,-6 -24,-11 -37,-15 -13,-5 -27,-9 -44,-15 9,-3 24,-7 42,-10 19,-5 40,-8 63,-10 13,-3 26,-4 39,-5 13,-1 26,-1 39,-2 1,0 3,1 5,1 1,1 3,0 6,0 14,0 27,0 38,-2 12,0 22,0 33,1 14,0 29,2 44,6 16,5 34,13 54,26l303 190c1,2 2,3 2,4 1,0 2,0 3,2 0,0 0,0 1,0 1,0 2,1 3,2 5,3 10,7 14,10 4,4 5,9 5,15 1,8 -2,14 -10,18 -7,4 -15,7 -24,10 -2,1 -5,1 -8,3 -4,1 -7,3 -10,4l-247 134c-21,13 -42,25 -64,38 -22,14 -43,27 -63,42 -51,34 -97,70 -137,106 -41,35 -68,61 -81,79 -1,2 -3,5 -5,9 -2,3 -4,6 -6,8 -33,53 -56,105 -67,157 -12,51 -15,107 -8,167 2,7 3,14 5,21 1,7 3,15 3,22l49 257c6,40 15,77 27,113 13,36 27,70 43,102 29,58 59,108 92,150 33,43 62,73 87,90 4,3 7,5 11,8 4,2 8,5 12,7 22,14 46,26 71,37 26,11 54,20 84,27 11,3 23,5 35,7 13,1 25,2 37,3l121 3 -38 -301c-4,-17 -6,-34 -7,-50 -1,-17 -2,-34 -2,-50 0,-46 5,-89 15,-129 10,-41 28,-83 55,-128 21,-34 44,-61 69,-83 24,-21 51,-41 78,-60 23,-13 47,-26 72,-39 24,-13 50,-27 78,-42l326 -185c-8,-3 -14,-6 -20,-10 -6,-3 -12,-8 -17,-13 -5,-3 -11,-7 -17,-10 -5,-4 -11,-8 -16,-11 -5,-3 -10,-6 -15,-9 -4,-3 -9,-6 -14,-9 -14,-9 -29,-18 -43,-27 -14,-9 -30,-20 -47,-33 -6,-4 -13,-8 -19,-12 -7,-4 -13,-9 -20,-13 -4,-2 -7,-4 -9,-6 -3,-1 -6,-3 -10,-6 -9,-5 -18,-11 -26,-16 -8,-6 -17,-11 -24,-16 -19,-10 -39,-21 -58,-33 -20,-11 -42,-23 -66,-37l222 5c8,2 16,3 23,4 8,1 15,2 22,3 10,1 20,3 31,6 10,3 22,7 34,11 9,3 16,6 23,9 6,2 13,5 21,8 6,3 12,7 19,10 6,3 13,7 20,12l368 230 -315 167c-4,3 -8,5 -12,7 -4,2 -7,4 -10,6 -26,13 -51,24 -75,35 -24,11 -46,23 -67,35 -33,17 -63,37 -90,58 -27,22 -52,50 -73,83 -1,3 -3,5 -5,8 -1,2 -2,5 -3,9 -1,3 -3,5 -5,8 -1,2 -3,5 -5,7 -16,32 -28,61 -37,88 -9,26 -15,56 -18,86 -1,12 -1,25 -1,38 -1,14 0,28 1,44l21 219c4,70 17,138 37,205 20,67 44,129 72,187 26,49 54,92 85,131 30,38 62,68 96,89 1,1 2,2 3,2 0,0 1,1 3,2 47,28 91,50 133,64 41,14 86,23 133,26 17,0 36,0 55,0 19,-1 40,-2 60,-3l16 -25 628 -991c-15,-8 -28,-16 -39,-23 -11,-9 -23,-16 -34,-24 -13,-9 -25,-18 -38,-26 -12,-8 -27,-18 -42,-27 -13,-8 -27,-17 -43,-26 -15,-8 -30,-18 -46,-27 -11,-8 -23,-15 -36,-22 -13,-7 -25,-15 -36,-22 -26,-14 -48,-26 -66,-36 -18,-10 -27,-15 -27,-15l286 19c5,2 10,3 14,4 5,1 10,2 14,3 6,0 11,1 18,3 6,2 12,5 20,7 3,1 6,2 8,3 3,2 6,3 10,3 5,4 10,6 16,9 5,3 10,6 16,9l359 225 -176 276 -627 992 369 231 -243 -2c-10,1 -19,1 -27,1 -8,-1 -15,-1 -22,-2 -10,-1 -21,-3 -32,-5 -11,-3 -22,-6 -34,-10 -9,-3 -17,-7 -25,-10 -8,-3 -15,-6 -23,-9 -8,-4 -16,-8 -23,-12 -7,-5 -15,-9 -22,-14l-293 -178 137 -219 -316 -16c-32,-1 -61,-2 -88,-3 -27,-2 -54,-5 -80,-9 -32,-4 -62,-11 -91,-21 -28,-9 -57,-23 -86,-42 -3,-2 -6,-4 -8,-5 -3,-2 -5,-4 -8,-5 -3,-4 -6,-7 -8,-8 -3,-2 -5,-3 -8,-5 -41,-30 -73,-61 -98,-96 -24,-34 -44,-72 -60,-113 -8,-21 -16,-43 -24,-65 -7,-22 -15,-45 -23,-70l1 -2z"/>
  <path id="12" class="fil3" d="M23621 5772l255 -240 855 -804 -273 -301 307 106 300 318 -169 159 81 19c23,7 48,14 73,21 26,8 51,16 76,24 81,26 156,55 224,86 69,31 122,62 161,93 1,1 3,3 4,4 2,2 4,2 6,3 1,1 2,2 4,4 1,2 2,3 4,4 28,30 53,75 73,134 21,59 37,125 48,199 17,130 13,269 -15,416 -27,148 -90,267 -188,359 -65,62 -143,107 -233,135 -90,28 -177,47 -261,56 -55,6 -105,9 -150,9 -45,0 -80,0 -106,-1l-418 -19c-13,0 -29,-1 -49,-1 -19,-1 -40,-3 -61,-6 -4,0 -9,0 -13,0 -4,0 -9,0 -13,0 -38,-3 -71,-7 -99,-13 -27,-6 -38,-15 -31,-25 5,-9 23,-14 56,-17 33,-3 69,-6 107,-8 1,-1 2,-1 3,-1 1,0 3,0 5,0 14,-1 27,-1 40,-3 12,-1 25,-2 36,-3l153 -14c49,-4 97,-10 145,-17 48,-7 94,-17 137,-28 88,-20 171,-48 247,-84 76,-36 146,-82 209,-137 2,-3 4,-4 6,-6 2,-1 3,-3 4,-4 74,-69 125,-153 153,-251 29,-98 44,-189 45,-275 0,-31 -2,-61 -5,-89 -4,-28 -8,-53 -14,-75l-39 -162c-2,-2 -5,-8 -9,-18 -4,-10 -10,-22 -17,-36 -5,-12 -12,-25 -20,-40 -8,-14 -17,-28 -28,-41 -3,-6 -6,-10 -10,-14 -3,-4 -7,-8 -10,-11 -5,-6 -11,-11 -16,-16 -6,-5 -12,-10 -19,-14 -52,-37 -118,-56 -196,-58 -78,-3 -147,11 -207,40 -12,8 -23,15 -35,22 -11,7 -21,15 -30,23l-790 743 -293 -145z"/>
  <path id="13" class="fil3" d="M25070 7422l289 -228 921 -727 -238 -302 272 89 285 362 -292 230 -920 726 -317 -150zm1820 -1243l5 -1 -28 171c-2,3 -3,6 -3,10 -1,3 -1,5 -1,8 0,2 -1,3 -1,4 0,1 0,2 0,2 -1,11 -3,21 -5,30 -2,10 -5,17 -7,21 -3,4 -9,5 -18,5 -9,-1 -19,-1 -30,-3 -2,0 -4,0 -6,-1 -3,0 -5,0 -7,0 -4,-1 -8,-1 -11,-2 -3,0 -6,-1 -9,-2l-186 -32c-3,1 -6,1 -6,1 -2,0 -3,0 -5,-1 -1,-1 -2,-2 -3,-2 -2,0 -3,0 -5,0 -7,-1 -12,-3 -17,-5 -4,-2 -9,-4 -13,-7 -2,-2 -3,-5 -4,-9 -1,-3 -1,-7 0,-11 0,-2 1,-4 1,-7 0,-1 0,-4 0,-6 0,-3 0,-6 1,-9 0,-2 1,-5 2,-7l26 -184c-1,-1 -1,-4 -1,-7 1,-3 0,-6 0,-10 0,-2 0,-4 0,-6 1,-3 1,-5 0,-8 1,-9 2,-17 4,-24 2,-8 6,-14 12,-19 3,-1 5,-3 6,-4 2,-2 4,-3 6,-2 4,-1 12,0 25,2 14,2 29,4 46,6 1,1 2,2 3,2 1,0 3,0 4,-1 5,2 11,3 17,3 6,1 13,3 18,4l126 23c1,2 3,2 6,3 3,0 6,1 9,2 2,-1 3,-1 5,0 1,1 3,1 4,0 7,2 15,4 23,6 7,3 13,6 15,10 0,0 0,0 0,0 0,0 1,0 2,2 0,0 0,0 0,0 0,0 0,0 0,0 2,2 3,5 4,10 0,4 0,10 -1,16 0,2 0,5 -1,10 0,4 -1,8 -1,12 -1,2 -2,2 -2,4 0,1 0,2 -1,4l2 -1z"/>
  <path id="14" class="fil3" d="M25597 8136l344 -206 1007 -602 -208 -356 214 116c1,3 4,5 6,7 3,2 6,3 8,4 8,5 16,11 23,17 7,6 13,13 20,21 3,3 6,7 8,10 2,3 4,6 5,9 1,1 2,3 3,5 1,2 2,4 3,5 2,4 5,8 7,13 3,5 6,10 9,15l187 338 -578 328c19,13 35,25 49,35 15,9 29,19 43,28 3,2 6,5 9,7 3,2 7,4 11,6 23,15 50,29 82,44 32,14 79,32 142,52 26,8 51,16 76,23 25,6 50,13 74,18 15,2 30,5 46,9 15,3 29,6 43,9 52,11 104,23 156,36 52,14 105,35 160,63 32,17 65,41 99,73 34,32 66,66 95,102 10,11 20,23 29,36 9,13 17,24 25,36 -30,-11 -59,-20 -85,-28 -27,-8 -53,-16 -79,-24 -4,-1 -8,-3 -11,-4 -4,-2 -8,-3 -12,-4 -26,-8 -52,-17 -78,-27 -27,-9 -56,-20 -87,-32 -49,-17 -94,-35 -135,-51 -41,-16 -81,-33 -120,-49 -12,-5 -24,-10 -37,-16 -12,-5 -25,-11 -38,-17 -37,-16 -75,-33 -113,-52 -39,-18 -80,-39 -125,-61l-230 863c-8,23 -16,52 -23,85 -7,33 -14,68 -19,105 -5,26 -9,53 -12,80 -5,27 -7,54 -7,81 -2,37 -1,73 3,107 4,34 11,63 23,86 0,1 1,3 1,3 1,1 1,2 2,3 0,0 0,0 0,1 1,1 2,2 2,3 6,11 13,21 21,32 8,10 16,21 26,31 7,10 16,20 25,29 10,10 19,19 28,28 19,17 36,33 51,46 14,14 24,25 30,35 2,4 3,7 4,9 0,3 0,5 -2,8 -7,7 -25,0 -56,-23 -30,-22 -65,-46 -104,-71 -13,-10 -26,-19 -39,-27 -14,-9 -27,-16 -39,-23 -23,-12 -44,-23 -63,-34 -20,-11 -38,-22 -55,-33 -23,-16 -43,-33 -62,-52 -19,-19 -36,-42 -51,-68 -2,-4 -5,-8 -7,-12 -2,-4 -5,-9 -8,-14 -27,-57 -39,-118 -36,-184 3,-66 14,-135 32,-207 9,-35 18,-70 28,-106 11,-35 21,-72 31,-109 1,-3 2,-5 2,-8 1,-4 2,-7 3,-12l192 -708c0,-1 0,-5 1,-10 1,-6 1,-13 1,-20 1,-4 2,-7 2,-10 0,-3 0,-6 0,-9 0,-5 0,-10 0,-15 -1,-3 -2,-7 -4,-10 -1,-2 -3,-4 -6,-5 -2,-1 -5,-2 -8,-2 -2,-1 -5,0 -7,1 -3,2 -6,3 -8,5 -1,1 -3,1 -4,2 -2,1 -2,1 -2,1 -2,1 -3,2 -4,3 -1,0 -3,1 -4,2l-658 383 -267 -196z"/>
  <path id="15" class="fil3" d="M28591 10580l-4 -4c6,188 -36,356 -128,503 -91,148 -226,252 -405,313 -2,0 -4,1 -6,2 -2,0 -4,1 -6,1 -2,2 -5,2 -6,3 -1,0 -4,1 -7,2 -117,39 -229,55 -335,49 -107,-6 -209,-48 -308,-126l-301 -241c-63,-48 -114,-100 -153,-156 -40,-57 -70,-117 -91,-181 -20,-60 -32,-124 -36,-192 -4,-67 0,-138 11,-212 26,-155 86,-287 179,-396 93,-109 211,-187 353,-234 25,-8 50,-15 74,-22 24,-6 49,-11 74,-14 122,-20 232,-21 331,-2 98,18 194,67 286,147l287 246c27,26 54,60 78,102 24,42 45,89 62,141 10,31 19,63 27,96 8,34 14,68 18,104 0,11 1,23 2,36 1,12 1,24 2,35l2 0zm-1291 -488l-1 3c-21,15 -42,43 -65,85 -22,42 -43,93 -63,155 -22,67 -39,140 -53,221 -13,81 -18,161 -14,240 2,31 6,62 11,93 5,30 13,59 22,87 14,44 34,83 60,120 26,36 58,67 98,91 46,26 115,38 205,35 91,-2 186,-20 285,-52 14,-5 29,-10 44,-16 15,-6 29,-12 43,-18 71,-30 137,-67 199,-112 62,-44 112,-97 151,-158 42,-64 69,-138 83,-221 13,-83 17,-166 11,-247 -3,-59 -10,-115 -20,-168 -11,-54 -23,-102 -37,-144 -14,-41 -28,-75 -42,-102 -15,-27 -29,-46 -42,-56 -43,-34 -122,-49 -235,-44 -114,4 -231,26 -351,66 -7,3 -15,5 -22,7 -7,3 -15,6 -24,8 -44,17 -87,35 -128,56 -42,21 -81,45 -117,71l2 0zm1789 227l5 -5 101 196c0,5 1,9 4,13 2,5 4,8 7,13 1,1 1,2 2,4 0,1 0,2 0,2 5,8 9,15 12,21 4,6 6,12 8,16 1,3 2,5 2,8 1,2 1,3 -1,3 -1,2 -5,2 -11,-2 -7,-3 -14,-8 -21,-16 -2,1 -3,1 -4,-1 -2,-1 -2,-1 -2,-1 -4,-4 -8,-7 -11,-9 -3,-2 -6,-5 -9,-7l-331 -274c-7,-4 -12,-8 -18,-11 -5,-3 -10,-7 -14,-12 -7,-6 -13,-12 -19,-18 -7,-6 -12,-13 -18,-21 -8,-8 -15,-17 -20,-24 -6,-8 -11,-16 -16,-24 -5,-6 -9,-13 -13,-20 -4,-6 -8,-13 -12,-20 -2,-3 -4,-6 -5,-9 -1,-4 -3,-8 -6,-12l-95 -176c-5,-4 -8,-10 -11,-15 -3,-6 -6,-11 -9,-17 0,-1 -1,-2 -2,-2 -1,-1 -1,-1 -1,-1 -5,-10 -11,-19 -16,-28 -5,-9 -9,-17 -11,-24 -1,-1 -1,-3 -2,-5 -1,-3 -1,-4 0,-6 3,-6 8,-8 14,-7 6,1 13,4 21,10 2,2 6,5 10,7 4,3 8,6 12,9 4,2 8,5 11,9 4,3 7,6 10,9l333 285c3,6 8,10 13,14 5,4 10,8 15,11 6,4 12,9 18,15 5,5 11,11 16,17 6,8 11,15 16,23 5,7 9,14 13,21 3,5 6,10 9,16 3,6 6,11 9,16 2,6 4,11 6,15 2,4 5,9 9,14l2 0z"/>
  <path id="16" class="fil3" d="M27690 13427l60 -89 -150 -209c-7,-7 -19,-22 -36,-45 -17,-24 -35,-52 -55,-85 -16,-27 -32,-57 -48,-89 -15,-33 -28,-66 -39,-100 -5,-14 -9,-27 -12,-40 -3,-14 -6,-27 -8,-41 0,-2 -1,-4 -1,-7 0,-3 0,-5 -1,-6 1,-4 2,-7 1,-9 0,-2 0,-5 0,-8 -3,-81 5,-153 26,-216 20,-63 55,-125 103,-187 1,-3 3,-6 5,-9 2,-2 4,-4 8,-6l245 -301c1,-3 2,-6 5,-9 3,-4 6,-7 10,-11 37,-40 85,-79 145,-116 60,-37 126,-60 199,-70 47,-6 93,-4 139,5 46,9 88,21 127,34 15,6 29,12 43,18 14,6 26,11 38,15l380 166c-1,-19 -2,-37 -2,-55 0,-19 -1,-37 -3,-55 0,-10 0,-19 -2,-28 -1,-9 -2,-18 -3,-27 -2,-12 -3,-25 -5,-39 -2,-14 -5,-28 -8,-43 -4,-15 -7,-29 -10,-42 -4,-14 -8,-27 -13,-40 -3,-14 -7,-27 -12,-39 -4,-13 -10,-27 -17,-43 9,5 21,13 36,25 15,12 31,26 47,43 11,8 20,16 29,26 9,9 18,19 27,29 0,1 1,3 2,4 1,1 2,3 4,4 9,11 17,21 25,29 8,8 15,17 21,25 9,11 17,24 24,39 6,15 11,34 14,58l49 355c-2,1 -2,2 -2,3 0,1 0,2 0,3 0,0 0,1 0,2 1,0 1,2 1,3 1,6 1,12 1,17 0,6 -3,10 -8,14 -6,5 -12,7 -20,4 -7,-3 -15,-7 -23,-12 -2,-1 -4,-3 -8,-5 -3,-2 -6,-3 -10,-4l-261 -105c-23,-8 -46,-16 -70,-25 -24,-8 -48,-15 -72,-21 -60,-17 -116,-30 -169,-38 -54,-8 -91,-12 -113,-11 -3,0 -6,1 -10,1 -4,1 -7,1 -10,2 -62,8 -117,24 -164,48 -47,23 -91,58 -134,101 -3,6 -8,11 -12,17 -5,6 -10,12 -15,17l-166 202c-27,30 -50,61 -70,94 -19,32 -36,65 -50,98 -27,59 -46,114 -57,167 -12,52 -16,93 -14,124 0,5 1,9 2,14 0,4 1,9 2,13 3,26 9,52 17,79 8,26 19,54 33,81 5,10 10,21 17,31 7,11 14,21 21,31l75 95 207 -222c11,-14 22,-26 34,-38 13,-11 25,-23 38,-34 34,-29 71,-52 108,-70 38,-18 82,-32 134,-40 39,-5 75,-5 107,0 33,5 65,12 97,22 24,9 50,19 76,30 26,10 53,21 82,33l351 132c-3,-7 -4,-15 -6,-22 0,-6 0,-14 0,-21 -1,-6 -2,-13 -2,-20 -2,-6 -2,-13 -3,-19 -1,-6 -2,-12 -2,-17 -1,-5 -2,-11 -2,-17 -2,-17 -5,-33 -7,-50 -2,-17 -4,-36 -5,-57 -1,-8 -2,-15 -3,-23 -1,-7 -2,-15 -3,-23 -1,-4 -1,-8 -2,-11 0,-3 0,-7 -1,-11 -1,-11 -3,-21 -4,-31 -1,-10 -2,-19 -4,-28 -4,-21 -8,-43 -12,-66 -4,-23 -8,-47 -13,-75l138 174c5,7 8,14 12,21 4,6 8,12 12,18 6,8 11,18 15,28 4,10 9,21 14,33 2,9 5,16 7,23 3,7 5,14 8,21 1,8 2,15 4,22 1,6 3,14 4,23l58 430 -330 -135c-4,-1 -9,-3 -13,-5 -4,-1 -7,-3 -11,-4 -26,-12 -51,-24 -75,-35 -24,-12 -47,-21 -69,-29 -35,-14 -69,-25 -103,-32 -34,-7 -71,-8 -110,-3 -3,1 -6,1 -9,2 -3,0 -6,1 -9,3 -3,0 -6,1 -9,1 -3,1 -6,1 -9,1 -35,8 -65,17 -92,27 -26,11 -52,24 -77,42 -10,7 -20,15 -31,23 -10,9 -21,18 -32,29l-155 157c-51,48 -96,101 -134,159 -39,58 -71,117 -97,176 -22,50 -37,100 -47,148 -10,49 -12,92 -7,132 0,1 0,3 0,3 0,1 0,2 1,4 8,54 21,102 36,143 15,41 37,80 65,119 11,14 23,28 36,42 12,15 26,30 40,45l30 -4 1164 -152c-4,-17 -6,-32 -7,-45 -1,-14 -3,-28 -5,-42 0,-15 -1,-30 -3,-45 -2,-15 -4,-32 -7,-50 -2,-15 -4,-32 -7,-49 -3,-18 -6,-35 -8,-53 -2,-14 -4,-28 -7,-42 -3,-15 -5,-29 -7,-42 -5,-29 -10,-53 -14,-73 -4,-21 -6,-31 -6,-31l169 232c2,5 4,9 6,13 2,5 5,9 6,13 4,5 7,10 9,16 3,5 5,12 8,19 2,3 3,6 3,9 1,3 2,6 4,9 0,6 2,12 3,18 2,6 3,12 4,18l57 420 -325 43 -1164 152 58 431 -154 -187c-7,-7 -12,-14 -17,-20 -5,-7 -9,-12 -13,-18 -6,-8 -11,-18 -16,-28 -6,-10 -10,-21 -15,-33 -3,-9 -5,-17 -8,-25 -3,-9 -5,-16 -8,-24 -2,-9 -4,-17 -5,-26 -1,-8 -3,-17 -4,-25l-51 -338 257 -36 -190 -253c-21,-25 -39,-48 -55,-70 -16,-22 -30,-45 -44,-67 -18,-27 -32,-55 -42,-83 -11,-28 -18,-59 -23,-94 0,-3 -1,-6 -1,-9 0,-3 -1,-6 -1,-9 1,-5 1,-9 1,-12 -1,-3 -1,-6 -2,-9 -3,-50 0,-96 11,-137 11,-40 27,-80 48,-118 12,-20 23,-40 35,-60 12,-20 26,-41 40,-63l2 0z"/>
  <circle class="fil0" cx="15000" cy="14977" r="14291"/>
  <path class="fil3" d="M7718 27307l274 -567 808 -1656 -578 -287 379 -33c4,3 9,4 15,4 5,0 9,-1 12,-2 17,0 31,1 45,3 14,2 29,5 45,11 8,1 14,3 19,6 6,2 11,5 15,7 2,1 5,2 8,4 3,2 6,3 8,4 6,3 13,7 21,11 7,4 15,8 23,12l537 283 -479 927c36,2 68,4 95,4 27,0 53,0 80,0 5,1 11,1 18,1 6,1 13,0 19,-2 43,1 91,-4 145,-12 55,-9 132,-27 231,-54 41,-11 81,-23 120,-36 38,-12 76,-25 112,-39 22,-10 44,-20 67,-28 23,-9 45,-17 66,-25 77,-31 155,-59 235,-86 79,-27 167,-45 264,-55 57,-6 121,-3 192,10 72,12 142,30 212,52 23,6 46,14 68,23 23,8 44,17 64,24 -49,13 -94,25 -136,38 -41,12 -82,24 -123,36 -6,2 -12,3 -18,4 -6,1 -12,3 -19,5 -41,11 -83,22 -125,33 -43,10 -91,21 -142,32 -79,19 -153,35 -221,49 -67,14 -134,27 -199,39 -20,3 -41,7 -62,11 -21,4 -43,7 -65,9 -62,11 -127,21 -193,31 -67,9 -138,18 -215,27l435 1330c10,38 25,81 43,131 19,50 40,102 64,154 18,39 36,78 54,117 18,38 38,76 60,111 30,51 62,97 96,138 34,42 68,73 103,94 3,1 4,2 5,2 1,1 3,2 5,3 0,0 1,0 2,1 1,0 2,1 4,2 17,9 36,17 55,24 19,7 39,13 61,19 18,6 37,12 58,16 21,3 41,8 60,12 40,7 75,13 106,18 31,5 54,11 69,19 6,3 10,6 13,9 3,3 4,7 4,12 -2,15 -33,21 -92,18 -59,-3 -124,-5 -197,-4 -26,-3 -51,-3 -76,-3 -24,1 -48,3 -70,5 -40,4 -77,7 -112,9 -35,2 -68,3 -100,3 -43,0 -85,-5 -126,-14 -41,-9 -83,-24 -126,-46 -6,-3 -12,-6 -19,-10 -6,-3 -14,-7 -22,-11 -84,-51 -152,-121 -205,-210 -53,-89 -98,-189 -135,-300 -19,-52 -36,-106 -54,-162 -17,-56 -34,-113 -53,-171 -1,-4 -2,-8 -4,-12 -2,-5 -3,-11 -5,-17l-355 -1095c-2,-1 -5,-6 -8,-15 -4,-8 -9,-17 -15,-26 -2,-6 -4,-11 -7,-15 -2,-4 -4,-8 -7,-12 -5,-8 -9,-14 -13,-19 -4,-4 -9,-8 -13,-10 -4,-2 -8,-3 -13,-3 -4,1 -8,3 -13,6 -3,1 -5,4 -8,8 -2,4 -4,8 -6,13 -1,2 -2,4 -4,6 -1,2 -1,3 -1,3 -1,2 -2,4 -3,7 -2,2 -3,4 -4,6l-535 1068 -518 -27zm4324 -780l-75 399 -323 1813 -491 77 94 -571 314 -1815 -503 -86c19,-9 37,-17 54,-25 17,-8 34,-17 50,-26 8,-3 17,-7 26,-10 9,-3 17,-8 26,-14 13,-5 27,-10 41,-16 14,-6 29,-11 45,-16 21,-8 41,-16 60,-22 19,-6 38,-11 56,-16 15,-4 31,-9 48,-13 16,-4 33,-9 51,-13 8,-1 16,-2 25,-4 9,-2 17,-4 24,-5 17,3 32,6 46,8 14,3 28,5 43,8 6,3 14,6 22,7 8,2 16,3 23,4 5,1 10,2 16,3 6,1 11,2 16,3 28,5 57,10 86,15 30,6 61,10 94,14 76,11 145,19 207,24 63,5 124,9 184,13 57,5 118,10 181,15 64,6 132,14 206,24 2,1 4,1 5,1 1,0 3,1 5,1 0,0 1,0 2,1 1,0 3,0 5,0 52,10 114,27 186,52 72,25 145,57 218,97 117,63 222,147 314,252 92,105 134,233 126,382 1,10 1,20 -1,29 -2,10 -3,19 -5,29 -27,148 -114,258 -261,329 -148,71 -306,130 -474,175 -24,8 -47,15 -71,20 -24,6 -48,11 -71,17l-64 14c23,48 45,92 66,131 21,39 41,76 62,111 6,9 11,17 15,27 5,9 10,18 15,26 23,38 46,77 71,117 24,40 51,83 79,129 26,44 51,83 74,117 22,35 46,69 69,102 2,1 4,2 5,3 1,1 1,2 1,2 23,36 47,72 72,108 25,36 52,76 81,120l49 71c3,10 7,19 12,24 5,6 9,13 13,21 27,36 57,67 89,92 32,26 72,44 121,55 3,0 5,1 7,1 3,1 5,1 7,2 3,0 5,0 8,1 2,0 4,1 7,1 4,1 9,2 14,3 4,0 9,1 14,2 36,4 71,4 107,-1 37,-4 70,-10 100,-17 30,-6 56,-13 77,-21 20,-7 32,-10 34,-10l18 47 -257 71c-24,8 -46,15 -66,21 -21,6 -41,14 -62,22 -26,8 -51,16 -76,27 -25,10 -49,19 -72,27 -47,14 -93,24 -141,30 -47,6 -98,4 -152,-6 -2,0 -5,-1 -9,-1 -3,-1 -6,-1 -8,-2 -5,-1 -9,-1 -11,-2 -2,0 -6,-1 -11,-1 -79,-20 -146,-57 -200,-113 -54,-56 -102,-114 -142,-175 -5,-11 -10,-20 -15,-28 -4,-9 -10,-17 -15,-25 -25,-41 -48,-78 -72,-112 -23,-33 -45,-66 -66,-99 0,0 0,0 -1,0 -2,-1 -2,-2 -2,-4 -23,-34 -46,-68 -70,-104 -24,-36 -51,-76 -79,-120 -11,-19 -32,-55 -63,-106 -31,-52 -64,-108 -100,-168 -2,-3 -4,-7 -7,-12 -2,-6 -5,-10 -6,-12 -39,-68 -74,-131 -103,-189 -30,-57 -45,-94 -45,-108 0,0 0,0 0,0 0,0 0,-1 1,-4 0,0 0,0 0,0 0,0 0,0 0,0 3,-6 9,-11 17,-15 8,-3 17,-5 27,-6 5,-2 10,-3 17,-4 6,-2 12,-3 17,-5l144 -29c14,0 30,-1 46,-4 16,-3 32,-7 48,-12 96,-24 192,-59 288,-104 95,-45 176,-94 241,-148 43,-32 77,-65 104,-101 27,-35 43,-69 49,-102 2,-7 3,-14 4,-21 1,-8 1,-14 0,-19 -12,-180 -87,-322 -227,-426 -139,-104 -299,-177 -478,-219 -7,-1 -14,-2 -20,-3 -5,-1 -11,-3 -15,-6 -7,-2 -13,-3 -19,-4 -6,-1 -11,-2 -16,-3 -14,-2 -28,-4 -41,-5 -13,-1 -27,-3 -41,-6 -22,-1 -44,-1 -67,-1 -23,1 -48,1 -75,1l0 -3zm2543 1346l-2 11c4,28 10,57 17,85 7,28 15,55 24,81 65,163 182,317 352,462 169,145 347,257 533,337 92,41 183,72 273,92 90,21 173,29 246,23 3,0 5,0 8,0 2,-1 4,-1 7,-1 2,0 5,0 7,-1 2,0 5,0 7,0 95,-12 171,-33 229,-63 58,-29 102,-60 134,-91 35,-36 58,-68 68,-95 10,-27 15,-41 15,-41l-139 -1826 -645 42 230 -198c7,-3 13,-7 19,-12 6,-5 12,-11 19,-16 11,-8 23,-16 35,-24 13,-8 26,-15 40,-21 10,-3 19,-7 28,-10 10,-3 19,-6 28,-9 10,-3 20,-6 32,-8 12,-2 25,-4 39,-5l651 -53 47 523 151 1836 581 -23 -240 213c-2,5 -4,9 -8,12 -3,3 -7,5 -12,8 -9,8 -18,15 -29,20 -10,6 -22,12 -36,17 -10,4 -18,7 -26,10 -9,3 -16,4 -23,5 -10,1 -18,1 -25,2 -8,0 -16,1 -26,2 -2,0 -5,0 -8,1 -4,0 -8,0 -13,0l-620 37 -28 -366 -355 243c-23,19 -45,35 -67,49 -21,13 -44,26 -67,37 -87,53 -175,94 -264,123 -89,30 -175,48 -259,54 -16,1 -34,2 -52,2 -18,0 -36,0 -56,-1 -57,-3 -138,-28 -243,-75 -104,-48 -213,-111 -327,-192 -157,-108 -305,-240 -442,-395 -138,-156 -224,-319 -259,-489 -3,-12 -6,-23 -8,-34 -2,-11 -3,-21 -4,-30 0,-5 -1,-9 -1,-11 0,-3 0,-5 0,-7 -10,-134 17,-273 83,-418 66,-144 138,-297 217,-457 5,-5 8,-10 12,-17 3,-6 5,-12 7,-16l103 -214 -684 41c22,-21 48,-43 77,-67 30,-24 59,-45 89,-64 59,-41 114,-75 165,-103 51,-28 79,-43 86,-46 17,-6 40,-12 71,-17 31,-4 65,-8 104,-11 26,-2 54,-4 84,-5 30,-1 60,-2 91,-5 34,0 67,0 101,0 33,0 66,0 97,0 48,1 89,2 124,3 35,1 54,1 56,1 -4,3 -29,48 -74,135 -45,88 -93,191 -144,311 -17,32 -32,67 -46,103 -14,35 -28,71 -42,106 -34,93 -62,185 -85,275 -24,89 -33,164 -28,224 0,0 0,0 0,2 0,1 0,3 0,5 0,2 0,4 1,5 0,2 0,2 0,2l-1 -3zm3908 1013l-215 -592 -624 -1733 -610 214 242 -295c4,-1 8,-4 12,-8 4,-3 6,-7 8,-10 11,-11 22,-21 33,-30 11,-9 24,-17 39,-25 6,-4 12,-8 18,-10 5,-1 11,-3 15,-5 2,0 5,-1 9,-3 3,-1 6,-2 8,-2 7,-3 14,-5 22,-8 8,-3 17,-5 26,-9l576 -187 331 989c27,-24 50,-46 69,-65 19,-19 38,-38 57,-57 3,-4 8,-8 13,-12 4,-4 8,-9 11,-15 31,-31 61,-68 93,-113 31,-45 72,-113 122,-203 21,-37 40,-74 58,-111 18,-36 35,-72 50,-108 8,-23 16,-45 27,-68 10,-22 19,-44 27,-64 32,-77 66,-153 103,-228 36,-76 84,-152 144,-228 36,-45 83,-88 141,-131 59,-43 121,-81 185,-116 21,-12 42,-23 64,-33 22,-10 43,-19 63,-29 -26,44 -49,86 -68,124 -20,38 -40,76 -61,113 -3,7 -6,12 -9,17 -3,5 -7,10 -10,17 -20,37 -41,74 -64,112 -22,38 -47,80 -75,125 -42,69 -82,133 -119,192 -37,58 -74,115 -111,170 -12,17 -24,34 -35,52 -12,18 -25,35 -39,53 -35,52 -73,106 -113,160 -39,54 -83,111 -130,173l1257 615c34,19 76,39 124,60 49,22 101,42 156,62 40,14 80,28 120,43 40,14 81,25 122,34 57,14 113,23 166,28 54,4 100,1 139,-9 2,-1 4,-2 5,-2 1,-1 3,-1 5,-2 0,0 1,0 2,0 1,-1 3,-1 5,-2 18,-6 37,-14 55,-23 19,-8 37,-18 56,-30 17,-8 35,-19 52,-31 17,-12 34,-23 51,-34 32,-24 61,-45 87,-64 25,-18 45,-30 61,-36 7,-2 12,-3 16,-3 4,0 8,2 11,6 10,12 -7,38 -51,78 -43,40 -90,86 -140,138 -20,17 -38,35 -55,53 -16,18 -31,36 -46,53 -25,32 -48,61 -71,87 -22,27 -45,52 -68,74 -30,31 -62,58 -97,81 -35,23 -75,42 -121,58 -7,2 -13,4 -20,7 -7,2 -15,5 -24,8 -95,24 -193,24 -293,0 -101,-24 -204,-61 -309,-112 -51,-23 -102,-48 -154,-75 -52,-27 -105,-53 -160,-81 -3,-1 -7,-3 -11,-5 -5,-2 -10,-5 -16,-8l-1032 -509c-3,1 -8,-1 -17,-4 -9,-3 -18,-6 -29,-7 -6,-3 -11,-5 -15,-7 -4,-1 -9,-2 -14,-2 -9,-3 -16,-4 -23,-4 -6,-1 -11,0 -16,2 -5,1 -8,4 -11,7 -2,3 -4,8 -5,13 -1,3 -1,7 0,11 2,5 3,10 5,14 1,2 1,5 2,7 1,2 1,3 1,3 1,3 2,5 3,7 0,2 1,5 2,7l393 1128 -381 353zm3554 -1457l-289 -502 -918 -1597 -522 301 199 -401 626 -360 290 505 918 1597 -304 457zm-1516 -3112l-1 -8 259 84c5,3 10,5 14,6 5,2 9,3 13,4 3,1 5,1 7,2 2,0 3,0 3,0 16,5 31,10 45,15 15,6 25,11 30,16 6,5 7,15 4,29 -2,14 -6,30 -10,46 -1,3 -2,6 -3,10 -1,3 -2,6 -3,9 -2,7 -3,13 -4,18 -2,5 -4,9 -7,14l-91 280c0,6 0,9 0,11 -1,1 -1,4 -2,7 -2,1 -3,3 -4,4 0,2 -1,4 -2,8 -2,10 -6,18 -10,25 -5,6 -10,12 -15,18 -4,2 -8,4 -14,4 -5,0 -11,0 -18,-2 -3,-1 -6,-2 -9,-3 -4,-1 -7,-2 -10,-2 -6,0 -10,-1 -14,-3 -4,-2 -7,-3 -11,-4l-280 -84c-2,1 -5,1 -10,0 -5,-1 -10,-2 -16,-2 -3,-1 -6,-1 -9,-2 -4,-1 -8,-2 -13,-1 -13,-4 -25,-8 -36,-13 -11,-4 -20,-12 -26,-22 -2,-4 -4,-8 -6,-11 -2,-3 -2,-7 -1,-10 -1,-5 2,-18 8,-38 7,-20 13,-44 20,-70 3,-1 4,-2 4,-4 1,-2 0,-4 -1,-6 4,-7 7,-16 10,-26 2,-10 6,-19 10,-26l64 -191c2,-1 4,-4 5,-9 1,-5 3,-9 6,-14 -1,-2 -1,-4 1,-6 1,-3 1,-5 0,-7 5,-11 10,-22 16,-34 6,-11 12,-19 18,-23 0,0 0,0 0,0 0,0 1,0 3,-1 0,0 0,0 0,0 0,0 0,0 0,0 4,-3 10,-4 17,-4 7,0 15,2 25,4 3,1 8,3 14,4 7,2 14,4 20,6 1,2 3,3 4,4 2,0 4,1 8,2l-2 -4z"/>
 </g>
</svg>
