<?xml version="1.0" encoding="UTF-8"?>
<!DOCTYPE svg PUBLIC "-//W3C//DTD SVG 1.1//EN" "http://www.w3.org/Graphics/SVG/1.1/DTD/svg11.dtd">
<!-- Creator: CorelDRAW Home & Student 2014 -->
<svg xmlns="http://www.w3.org/2000/svg" xml:space="preserve" width="21cm" height="29.7cm" version="1.1" style="shape-rendering:geometricPrecision; text-rendering:geometricPrecision; image-rendering:optimizeQuality; fill-rule:evenodd; clip-rule:evenodd"
viewBox="0 0 21000 29700"
 xmlns:xlink="http://www.w3.org/1999/xlink">
 <defs>
  <style type="text/css">
   <![CDATA[
    .str0 {stroke:#2B2A29;stroke-width:7.62}
    .fil0 {fill:#2B2A29}
   ]]>
  </style>
 </defs>
 <g id="Warstwa_x0020_1">
  <metadata id="CorelCorpID_0Corel-Layer"/>
  <path class="fil0 str0" d="M7714 24156l682 8c-35,31 -48,20 -87,39 -53,25 -31,25 -113,25 -88,-1 -176,-2 -263,2 64,22 232,8 313,8 -122,61 -869,15 -1070,24 59,22 389,14 485,15 164,1 325,-6 493,-4 -113,43 -190,31 -335,28 -20,-1 -45,-3 -64,-2l-57 10c100,2 275,-21 362,8l-267 8c58,20 156,8 225,8 -65,32 -139,27 -225,28l128 1c-44,24 -123,15 -176,17l107 0c-47,37 -279,48 -359,46 -112,-2 -266,-38 -378,-55l75 -16c-67,-2 -122,2 -182,-8 -46,-7 -134,-33 -159,-30l126 -5c-66,-23 -168,-6 -246,-14 32,-20 97,-16 143,-15 -36,-5 -10,-7 -25,-13 -76,-27 -275,11 -411,-30l-117 -13c35,-23 283,-37 324,-21 -97,0 -194,-2 -291,-3 -93,0 -221,-15 -304,-11 -32,7 -78,3 -116,0l-114 -25c-4,-1 -7,-3 -11,-6 295,-11 543,1 806,-5l47 -14c-284,-2 -261,29 -624,1l-386 8c-88,-2 -152,-13 -241,-4 -230,24 -357,-10 -523,-7 -77,1 -189,18 -254,-7 10,-6 0,-4 24,-9l101 -3c-9,-6 -10,-7 -29,-12l-89 -2c47,5 76,10 109,-22l1887 2c73,-2 58,-21 230,-23 209,-3 263,10 265,10 1,1 4,3 5,3 41,16 88,-6 181,-10 170,-7 332,19 366,17 301,-22 348,1 629,-9 90,-4 173,3 262,7 -78,45 -371,-1 -482,8l-985 -5c-34,0 -432,-5 -460,5 -29,11 -5,-3 -26,16 146,6 323,-12 476,-14 158,-1 313,2 471,12 149,9 319,-6 472,-7 157,-2 315,2 471,9 -186,35 -621,12 -828,2 -260,-12 -578,40 -840,10l1636 15c-31,15 -687,6 -722,6l-701 5c-21,5 -16,4 -25,10l684 3zm1070 -416l606 0c38,0 77,1 115,0 19,0 46,-1 64,0l-785 23 724 1c-2,2 -6,0 -8,3l-56 10c-135,13 -421,11 -557,11l-660 -11c-296,0 -599,14 -901,11 -152,-2 -302,-9 -450,-11l-2085 0c-30,0 -62,3 -86,-12 344,-2 702,7 1039,-7l-1040 3c2,-4 6,-10 8,-8l1145 -17c-207,0 -1048,20 -1135,-10 -2,-1 -6,-2 -8,-4 178,4 279,-2 445,-18 229,-22 1391,1 1546,13 295,21 634,-4 935,-4l2186 2c-84,1 -81,20 -237,20l-805 5zm1507 -123c32,-40 11,-9 0,-22 -140,43 -1146,13 -1373,9 -227,-5 -462,8 -691,8 -234,-1 -472,-7 -706,-3 44,30 255,11 319,9 306,-11 669,-7 974,1 434,13 876,-6 1315,2 -119,37 -907,6 -1095,3 -183,-3 -371,9 -555,10 -184,0 -380,-8 -562,-1 44,11 789,-4 907,-4 306,0 608,11 911,11 -2,3 -6,3 -8,10 -14,38 -114,27 -138,27 -797,5 -1565,-6 -2368,-6 -670,0 -1374,24 -2043,5 -30,-1 -41,-1 -68,-8 -32,-7 -27,-8 -67,-9 -54,-1 -279,17 -320,-20l202 0c-3,-2 -8,-8 -10,-5 -2,3 -6,-3 -9,-4l-84 -8c-28,1 -64,-2 -87,4l230 -3c-57,-48 -163,-3 -228,-25 8,-33 234,-20 316,-25 334,-18 722,-15 1058,-10 234,4 449,24 696,6 435,-32 973,18 1399,7 239,-7 474,-9 712,-9 239,0 475,5 713,10 130,2 615,-21 693,16 14,-3 10,0 25,-11 11,-8 16,-16 24,-25 -5,-66 -501,-1167 -569,-1326 -1012,-2332 -1693,-4864 -2077,-7403 -132,-867 -250,-2116 -282,-3024 -3,-100 -2,-391 -22,-463 -63,-10 -52,19 -80,145l-660 3015c-279,1323 -2123,9520 -2072,9676 130,53 643,11 819,10 669,-4 892,57 1522,173 680,124 789,135 1399,-145 197,-90 384,-176 589,-260 197,-80 441,-146 669,-180 130,-20 632,-83 682,-158z"/>
  <path class="fil0 str0" d="M4493 24594l1388 -14c132,-2 266,2 397,7 178,8 704,-26 850,37l-15 6c-74,17 -275,-8 -354,13 254,1 486,5 733,21l253 -1c96,-10 -21,-28 273,-27 99,1 137,17 175,-17l-163 10c16,-16 30,-21 61,-22 51,-3 96,22 191,0 39,-9 188,-1 232,7 -17,6 -46,16 -77,17 -39,1 -73,-14 -101,4l111 5c-39,38 -73,25 -136,25 -49,-1 -98,0 -147,0 -88,0 -204,9 -286,-1l520 5c-70,18 -18,22 -139,23 -61,0 -122,-1 -183,2 3,2 7,1 9,5l37 13c26,4 119,-7 182,2 -84,-7 18,24 -161,23l-616 10c215,12 445,-11 666,8l-56 15c-67,29 -1266,19 -1306,0l427 -24c-46,-10 -494,5 -655,-11l399 -14c93,0 237,33 315,-2 -347,8 -480,4 -838,-6l636 -16c-46,-9 -147,3 -208,4 -161,3 -534,-9 -668,-31 327,-16 635,-9 966,-10l-1628 -39c-295,0 -835,58 -1084,-27zm-323 -270c46,-49 49,-15 51,-14 -86,-11 -42,4 -44,-38l-10 -19c56,-10 143,-19 195,-4 1,5 36,-4 -23,16 76,19 6,76 133,109 219,57 427,59 665,46 156,-8 324,-2 482,-2 165,0 294,14 455,21l-214 10c-66,-2 -151,-12 -209,7 67,30 390,-18 551,4 44,6 128,36 153,18l-223 16 365 10c-79,12 -409,5 -533,6 -36,0 -130,-1 -161,14 16,15 14,20 46,25 29,5 451,-22 675,0 76,7 158,-3 234,6 -77,8 -159,1 -238,8 -296,27 -441,-11 -671,-4 -293,10 -591,37 -891,20l43 -14c-185,7 -470,8 -645,-10 323,-44 823,16 1000,-11 56,-9 74,-3 112,-31 -197,-7 -388,7 -593,-2 -152,-7 -317,18 -535,1 -8,-1 -33,-4 -41,-5 -23,-6 -14,-3 -27,-10l768 -3c197,-11 635,11 736,-6 -77,-41 -1408,38 -1529,-21 170,-2 871,-37 985,-14 -326,-12 -679,16 -1006,-8l-49 -103c23,-25 10,-15 51,-21l-58 3zm6154 -471c86,-33 91,-25 187,-25l147 2c46,16 9,-10 41,28l-86 4c23,11 11,3 33,11 5,1 14,8 16,6 1,-3 5,1 8,3l-70 53c-1,-2 -3,5 -5,7 -54,-7 -266,-8 -317,10 53,5 68,-2 117,-6 12,-1 42,-1 53,1l52 22 -212 6c33,14 175,-3 241,7l-157 5c33,15 83,7 129,10 -88,66 -269,52 -409,50 -15,-27 -17,26 7,-6 3,-4 4,-1 3,-3 -3,-3 -165,-7 -240,8 -67,14 43,-12 -19,6l-18 7c76,25 455,-24 518,17 -64,18 -129,9 -196,8 40,15 78,5 128,11 -85,6 -193,-6 -277,5 -48,6 -77,18 -135,11 -63,-9 -58,-13 -135,-7 108,41 340,-8 463,15l-644 24c-37,0 -70,-7 -104,-7 -35,0 -70,9 -106,7l-213 -12c107,-47 369,19 468,-30 -101,-10 -251,18 -362,-7l55 -16c48,-26 303,-4 382,-19 -44,-15 -203,0 -275,-8l102 -25c54,-23 259,-34 334,-49 36,-7 35,-15 76,-19 39,-3 50,-1 87,-8 78,-15 123,17 167,-6l-92 -20c90,-23 199,-12 288,-12 -45,-12 -70,30 -129,-10 30,-40 116,-27 172,-40l-73 -9zm172 -93c9,-28 17,-29 45,-35l231 1c-32,43 -38,25 -43,55 -7,53 22,-32 0,16 -20,28 -168,21 -218,20 -25,0 -70,-6 -78,-26l154 4c-25,-4 -83,-4 -122,-11 42,-22 87,-15 134,-6l-103 -18zm162 -245c15,-3 16,-2 30,-4 12,-3 11,12 19,-5 2,-3 7,-1 10,-6l-116 -13c9,-9 -22,-27 38,-15 -45,-4 -25,8 -53,-21 55,-21 176,-13 236,-7 -17,18 -34,32 -70,22l75 5c-13,20 -2,5 -17,18l-23 15 29 22c19,20 3,-2 18,23 -65,5 -179,17 -217,-14 15,-12 16,-14 41,-20zm-8006 -577c16,-29 18,19 2,-9 -57,14 -50,0 -104,-3l-15 -23c-1,-3 -2,-5 -3,-7 -12,-27 -7,-13 -14,-40 132,-8 201,-35 235,39 16,35 -45,1 45,38 -62,1 -110,15 -154,15 -3,-28 -15,30 8,-10zm-150 -127c21,-27 -33,-25 53,-30 -40,2 -21,6 -49,-8 53,-3 45,-10 84,-16l-76 -28c20,-8 125,-18 155,-15 18,2 68,3 38,32 -12,12 -57,4 -72,21l65 16c1,1 2,-3 8,12l-1 40 -199 -7c2,-2 2,-49 43,-15l-49 -2zm9236 -256l0 -88 93 2c9,25 14,-26 -7,8 -19,31 -16,-18 -4,10 56,-8 65,-34 128,-22l-22 18c-1,-2 -5,5 -8,8 52,4 41,10 41,72 -80,9 -155,21 -221,-8zm-4942 -12073c104,-30 348,-5 472,-24 274,-43 674,-21 948,3 72,6 154,-6 232,2 58,5 164,43 212,12 -131,18 -512,-16 -591,19 148,7 889,-25 974,34 -307,20 -1007,18 -1329,10 -437,-10 -889,-2 -1330,-2 31,-28 17,-26 101,-23 48,2 49,-8 88,-12 58,-7 147,-1 209,-1 142,0 282,1 425,-3 -57,-36 -290,-9 -411,-15zm-2631 13513c-14,181 -53,352 49,484 77,98 251,146 422,166 357,41 769,-16 1140,2 720,35 1502,325 2065,230 575,-97 1065,-506 1707,-627 475,-90 1002,-78 1244,-507 37,-64 66,-152 57,-240 -8,-91 -55,-145 -83,-207 190,-82 419,-86 749,-275 171,-98 530,-323 455,-568 -38,-123 -116,-172 -182,-331 -49,-120 -100,-240 -152,-361 -528,-1226 -950,-2561 -1312,-3853 -423,-1512 -804,-3628 -937,-5252 -26,-324 -51,-643 -73,-968 -5,-66 -24,-700 -46,-727 -27,-33 -176,-40 -217,-29 -25,100 29,797 39,956 124,1933 489,4251 1003,6063 150,531 292,1045 461,1560 224,684 530,1552 812,2215 70,162 239,586 308,708 52,92 94,116 -144,277 -468,317 -953,331 -1105,416 12,85 161,364 166,391 22,113 -138,256 -243,304 -243,111 -632,129 -918,193 -601,136 -1134,514 -1612,609 -301,59 -698,-25 -986,-81 -327,-64 -624,-119 -968,-144 -400,-29 -1017,43 -1332,-28 -103,-23 -139,-43 -134,-155 7,-169 61,-342 67,-501 -374,-12 -442,149 -801,-142 -194,-158 -323,-309 -565,-461 -109,-68 -343,-196 -357,-323 -22,-191 456,-1863 541,-2176 573,-2119 1145,-4357 1657,-6502 88,-367 178,-732 265,-1098 87,-375 145,-741 260,-1101 89,-281 284,-760 436,-926 46,-50 117,-103 188,-147 71,-45 151,-77 246,-99 158,-36 452,-52 625,-60 682,-36 1272,-32 1948,35 168,16 252,49 214,-66 -60,-182 -58,-156 -180,-167 -866,-77 -1715,-89 -2579,14 -358,43 -626,270 -798,563 -221,375 -437,1071 -508,1534 -28,183 -83,378 -126,555 -91,365 -177,731 -266,1097 -176,728 -364,1457 -539,2184 -348,1445 -746,2884 -1120,4315 -131,500 -295,1106 -442,1601 -75,254 -162,585 92,770 67,48 125,94 201,144 214,142 189,117 394,287l176 159c243,192 316,304 738,290z"/>
  <path class="fil0 str0" d="M13287 11539c73,0 186,-13 231,1l17 58 -360 -9 35 -49 45 -1 32 0zm409 -7c13,-15 40,-38 62,-57l119 3 5 55 -186 -1zm-147 43c4,-77 147,-209 105,-484 -43,-275 -200,-386 -384,-527 -276,-211 -30,-528 194,-445 256,95 491,350 519,691 14,177 -38,359 -117,484 -51,80 -209,280 -317,281zm-1781 -1489c1,-2 2,-6 2,-7 15,-29 19,-7 29,-14l-14 18c-2,2 -4,5 -5,6 -32,37 -50,44 -104,55l29 13 -63 46c-53,3 -67,-10 -73,-46 -17,-103 90,-72 199,-71zm1350 -117l-23 -12c-31,-15 -13,6 -7,-3 42,-5 92,-1 117,-14 -62,1 -50,11 -117,-6 2,-3 9,-4 10,-5 0,-1 0,-3 0,-4l0 -20 260 -4c-21,20 20,18 -55,26 40,1 40,-4 70,10l-120 13c65,-1 75,-6 143,5l-55 14 106 15c-50,14 -335,17 -373,-3l54 -7c-3,-2 -7,-4 -10,-5zm791 1548c-7,-44 47,-95 73,-138 222,-371 191,-797 -76,-1116 -67,-80 -132,-141 -229,-201 -80,-49 -224,-89 -280,-139 -177,-158 8,-463 295,-389 403,102 743,446 798,899 46,389 -92,675 -334,921 -39,39 -183,161 -247,163zm-815 -1961c39,242 -159,868 -249,1062 -205,440 -492,813 -875,1105 -121,92 -255,179 -400,260 -183,102 -755,324 -1006,312 -20,-225 155,-781 228,-975 156,-417 247,-487 409,-805 122,-239 264,-679 132,-968 -187,-409 -807,-541 -1193,-115 -73,80 -48,28 -147,157 -40,51 -87,116 -124,180 -158,274 -244,620 -189,991 27,177 87,315 124,483 195,884 -199,1410 -185,1527 87,44 446,18 567,9 173,-13 350,-49 512,-86 538,-124 985,-374 1389,-705 109,-89 218,-183 308,-290 242,-289 303,-353 501,-704 42,-75 65,-129 132,-172 154,-98 345,-30 376,130 33,166 -280,676 -374,815 -139,207 -278,282 24,262 493,-33 915,-267 1232,-577 188,-184 369,-499 446,-749 112,-363 115,-679 -54,-1002 -528,-1010 -1955,-692 -2676,-82 -129,109 -358,321 -447,464 -49,79 13,169 98,141 34,-11 138,-107 172,-133 214,-166 511,-337 780,-424 90,-29 399,-131 489,-111z"/>
  <path class="fil0 str0" d="M8518 10016c-44,12 -17,1 -60,3l-27 4c41,20 67,12 115,18 -23,-11 -95,-10 -130,18 87,1 223,-13 302,0 47,7 231,25 255,38 -31,24 -118,15 -170,15 -59,1 -118,2 -178,2 -119,1 -237,2 -356,3 -237,3 -475,0 -712,1 -122,0 -1331,4 -1425,-14 109,-60 1011,-53 1221,-58 -95,-22 -281,3 -393,3 -90,-1 -310,-23 -375,-10 90,-2 588,-14 633,-32 -79,3 -216,23 -282,1l381 -16c128,-7 631,-12 747,11 42,7 278,31 321,19 37,-11 17,10 38,-23 -195,-6 -393,-29 -594,-33 -208,-3 -422,-7 -628,4 -746,36 -1415,31 -1889,647 -317,412 -605,1304 -695,1841 -93,557 -187,835 -506,1232 -96,120 -292,301 -413,383 -110,73 -270,180 -423,216 -267,64 -353,12 -550,-31 16,-37 40,-63 65,-88l144 -159c323,-394 559,-721 800,-1190 278,-539 469,-1171 697,-1754 122,-310 626,-1445 786,-1665 338,-461 838,-448 1394,-432 110,3 514,47 578,35 27,-5 18,-2 33,-4 12,-1 10,16 20,-3 2,-3 6,0 10,-1 -91,-36 -130,-21 -253,-22 -92,0 -170,-6 -259,-9l-262 -27c-193,-11 -289,13 -392,10 -50,-1 -78,10 -129,16 -289,36 -211,62 -475,48 -33,-2 -43,8 -63,10l-162 -4c19,-19 2,-1 23,-16l15 -9c57,-43 -7,-43 78,-52 54,-7 125,-6 183,-9 122,-8 254,-7 377,-5 253,6 489,13 744,12l283 -4c260,-44 260,21 420,-7 195,-34 140,25 365,-4 70,-8 202,-1 275,10 63,8 56,20 71,42l-352 9c59,8 167,-12 247,-10 93,2 80,25 262,16 -17,-4 -20,-16 -31,-24 -233,-97 -962,-187 -1236,-212 -347,-31 -1069,-58 -1373,42 -178,58 -354,177 -443,279 -86,100 -82,93 -158,209 -116,179 -509,1022 -601,1232 -150,340 -286,683 -414,1042 -132,370 -251,718 -414,1053 -202,415 -442,771 -712,1109 -36,44 -324,382 -384,434 -28,24 -136,119 -128,150 28,38 143,106 208,135 84,38 169,68 267,90 201,45 436,19 617,-50 302,-114 667,-415 814,-600l152 -194c147,-210 272,-465 344,-724 55,-197 71,-387 115,-587 99,-456 328,-1195 574,-1542 167,-236 450,-489 861,-553 696,-107 1777,-98 2521,-32 80,7 139,26 166,-6 22,-36 12,-137 -12,-167 -35,-29 -400,-70 -463,-60z"/>
  <path class="fil0 str0" d="M9008 9674c-104,18 -338,6 -456,6 -1068,2 -2183,12 -3242,-2 36,-56 31,-37 194,-37l3071 -5c107,11 375,-28 433,38zm-17 190c25,-36 25,-82 34,-134 12,-66 23,-83 -42,-106 -688,-243 -1231,-365 -1984,-435 -352,-32 -974,-75 -1278,46 -341,136 -450,449 -608,775 -230,476 -440,935 -627,1437 -62,167 -119,337 -183,507 -163,435 -175,513 -411,972 -165,321 -341,594 -531,852l-221 282c-161,197 153,32 226,-5 77,-39 148,-88 213,-132 76,-53 128,-99 194,-152 94,-75 110,-113 170,-176 101,-106 199,-260 278,-414 175,-344 178,-704 279,-1093 100,-384 203,-687 351,-1031 217,-505 478,-849 986,-1077 170,-77 353,-115 554,-137 433,-47 871,-79 1312,-69 221,5 441,13 660,31 103,8 572,70 628,59z"/>
  <path class="fil0 str0" d="M7049 10869c-35,79 -680,3076 -698,3155l-1732 7904c-40,187 -353,1525 -336,1592 39,14 181,11 210,-8 40,-26 41,-92 60,-183l132 -602c59,-270 119,-538 177,-807 578,-2676 1175,-5361 1760,-8034 117,-536 232,-1070 353,-1607 60,-267 118,-537 177,-807 29,-133 59,-267 88,-404 9,-43 50,-166 26,-198 -27,-37 -174,-11 -217,-1z"/>
  <path class="fil0 str0" d="M12545 7029c3,2 8,0 9,4 12,36 56,-22 -11,65l-63 -3c-10,-49 -11,-7 -1,-47l1 -22c-12,-41 -10,19 -10,-19l158 -5c-1,4 -3,4 -3,5 -1,1 -4,1 -4,1 -44,19 -21,19 -76,21zm273 -1491c224,-63 608,64 704,197 71,100 74,237 1,345 -159,234 -841,287 -994,8 -98,-178 5,-470 289,-550zm1857 -352c8,-50 16,-59 72,-61l33 55 -105 6zm25 -79c-68,29 -43,154 -96,242 -37,63 -103,123 -193,139 -256,44 -971,-30 -1243,-81 -224,-43 -358,-76 -564,27 -338,169 -403,499 -256,940 127,381 66,677 109,729 81,100 148,-66 196,-80 37,-10 116,6 154,13 264,56 455,214 572,434 18,35 38,74 50,117 14,46 13,100 53,115 59,21 63,-36 77,-78 85,-258 300,-508 531,-652 77,-48 138,-71 223,-111 62,-29 51,-55 44,-127 -6,-56 -7,-111 -5,-167 5,-204 52,-397 117,-568 72,-190 150,-282 233,-437 39,-73 67,-155 87,-248 8,-38 21,-112 15,-149 -8,-48 -55,-78 -104,-58z"/>
  <path class="fil0 str0" d="M10345 22903c-9,-22 -18,-30 -24,-58 60,-1 155,-13 203,9 -2,2 -5,3 -6,6 -1,4 -5,5 -6,6 -24,11 0,3 -24,9l-143 28zm-17 26c64,-1 163,-34 218,-50 1,-64 -232,-557 -275,-654 -659,-1490 -1264,-3306 -1631,-4884 -470,-2022 -694,-3680 -777,-5736l-16 -682c-1,-105 -47,-80 -155,-79 -106,1 -83,45 -80,143 1,73 3,146 4,220 21,1034 98,2008 221,3038 131,1087 342,2119 575,3156 222,983 526,1960 841,2877 157,453 334,918 512,1353 154,376 389,946 563,1298z"/>
  <path class="fil0 str0" d="M10663 4842c-1142,47 -2366,488 -3252,1160 -232,175 -396,318 -597,513 -29,29 -51,49 -80,78 -457,445 -906,1086 -1170,1668 -38,82 -91,162 -19,244 55,63 154,75 221,11 53,-50 79,-133 113,-201 131,-256 318,-559 485,-783 278,-375 407,-514 738,-833 163,-157 334,-301 518,-435 122,-90 244,-166 373,-255 208,-144 589,-335 831,-437 841,-353 1696,-523 2661,-475 69,4 250,27 304,18 91,-15 130,-138 58,-198 -100,-83 -997,-83 -1184,-75z"/>
  <path class="fil0 str0" d="M3233 21583c26,26 88,18 144,19 189,3 1061,9 1119,-48 41,-49 81,-328 100,-413 32,-145 62,-287 94,-429 26,-117 188,-801 179,-858 -57,-27 -317,4 -398,7 -136,6 -288,8 -424,5 -66,-1 -132,-3 -199,-4 -209,-5 -158,-56 -270,376 -33,129 -366,1314 -345,1345z"/>
  <path class="fil0 str0" d="M3857 19242c87,25 664,2 796,-6 451,-29 348,54 445,-379 28,-124 304,-1321 280,-1346 -26,-27 -289,35 -346,42 -124,18 -239,32 -365,45 -478,50 -379,-71 -486,341 -44,167 -336,1233 -324,1303z"/>
  <path class="fil0 str0" d="M13673 5228c-176,-6 -365,13 -533,-17 141,-3 1271,-15 1312,5 -21,10 -614,18 -638,10 205,12 429,13 636,15 -28,36 -172,21 -223,23l199 21 -50 22c-138,14 -637,-6 -775,-19 3,-1 7,-3 10,-4l121 -20c-79,-2 -157,1 -236,0 -56,-1 -175,-34 -214,-19 95,-18 275,-6 391,-17zm-972 -415c-259,20 -452,79 -610,307 -175,254 -119,453 -104,776 14,291 15,601 1,891 -15,304 -29,525 -179,742 -125,181 -264,317 -498,413 -220,91 -193,-13 -215,248 -16,198 -90,282 145,186 161,-67 311,-147 440,-251 25,-19 43,-33 66,-50 26,-20 33,-35 57,-57 122,-111 345,-375 395,-527 80,-242 103,-543 60,-809 -45,-281 -286,-743 -36,-1116 58,-87 143,-173 231,-230 240,-154 443,-147 747,-86 153,30 1155,162 1252,42 39,-49 29,-122 -13,-161 -38,-36 -108,-53 -158,-73 -457,-182 -1034,-286 -1581,-245z"/>
  <path class="fil0 str0" d="M18452 6934l83 -7c12,12 18,19 32,47l-129 4 14 -44zm-37 26c-54,1 -308,-100 -382,-122 -130,-39 -251,-81 -386,-117 -648,-171 -1122,-222 -1794,-244 -237,-8 -433,-364 -201,-604 107,-110 218,-111 409,-99 146,10 303,30 443,57 282,55 535,132 779,238 297,129 730,371 942,588 33,34 203,233 190,303zm227 228c38,-160 -176,-458 -266,-578 -179,-239 -880,-637 -1143,-763 -302,-145 -665,-283 -1015,-369 -87,-22 -647,-140 -731,-128 -103,15 -57,284 -270,613 -49,76 -87,125 -127,218 -36,83 -61,169 -79,266 -20,112 -45,229 86,222 523,-28 765,-71 1322,-19 430,41 774,112 1175,208 224,54 563,170 785,252 68,26 198,92 263,78z"/>
  <path class="fil0 str0" d="M6055 8509c61,18 414,5 517,7 127,3 410,34 514,19 51,-89 66,-803 749,-1344l171 -129c-1,-60 -107,-189 -161,-271l-171 -265c-80,2 -254,188 -317,238l-293 274c-41,44 -62,76 -110,120 -169,157 -459,566 -591,761l-254 426c-28,54 -70,100 -54,164z"/>
  <path class="fil0 str0" d="M12833 9848c-98,-49 -598,226 -678,279 -408,269 -716,613 -920,1050 -40,86 -261,680 -202,765 54,77 601,-254 656,-290 400,-257 699,-621 918,-1051 56,-108 263,-627 226,-753z"/>
  <path class="fil0 str0" d="M10433 19802c10,-51 -160,-550 -188,-641l-286 -972c-21,-46 -86,-46 -149,-60l-498 -131c-47,-14 -295,-111 -319,-86 -27,26 139,579 162,652l294 963c59,192 22,166 224,194 118,17 683,106 760,81z"/>
  <path class="fil0 str0" d="M4444 16991c98,44 811,-101 986,-139 143,-31 109,-6 158,-229 27,-121 278,-1230 260,-1249 -28,-30 -240,53 -290,67 -102,26 -205,54 -312,75 -553,105 -460,23 -515,250l-287 1138c-12,46 -18,60 0,87z"/>
  <path class="fil0 str0" d="M9654 8598l148 1c-57,15 -343,8 -370,20 60,6 105,-9 167,-4 59,4 109,5 167,8l-80 7c18,12 39,28 39,13l-408 9c103,37 265,10 385,16 -350,8 -757,-8 -1119,6 -2,3 -6,4 -6,9l-4 10c-19,0 -54,2 -71,0 -74,-10 31,-15 -63,-15 -9,0 -46,8 -65,8 -33,0 -54,-9 -75,-10 -43,-2 -76,10 -138,3 -10,-2 -132,-11 -139,-9 98,-7 304,13 361,-16 -111,-7 -230,4 -345,2 -67,-2 -105,-17 -145,-21 -28,-2 -56,-2 -82,-5 -73,-8 -61,-16 -76,-42l513 -21c60,-2 274,16 337,51 155,87 405,31 585,21 -23,-12 -62,-20 -89,-11l225 -12c-65,-10 -103,8 -164,-9l125 -13c-26,-4 0,-10 -71,-14 23,10 105,-13 150,-18 73,-10 108,5 170,9 64,5 93,-21 173,-8 70,11 114,4 177,12 -10,-2 -190,14 -212,23zm-253 -652c-28,-16 -95,2 -158,-9 4,-2 7,-3 11,-5 3,-1 6,-3 10,-4 4,-2 6,-3 10,-5 4,-1 7,-2 10,-4 14,-5 16,-4 30,-9 -59,1 -65,17 -123,2 5,-20 22,1 -42,-8l0 -14c-3,-19 60,0 -58,-22 -32,-6 -71,-23 -89,-2 87,-20 229,-3 329,-15 76,-9 83,14 156,3 65,-10 98,1 142,19l-43 5c46,9 54,-1 56,29 -2,1 -23,5 -24,6 -2,1 -6,2 -8,3 -3,2 -7,4 -9,5l-20 12c42,-2 60,-12 92,6 -8,-7 15,-13 -32,-5 -19,4 2,-16 -39,16l95 8c-58,1 -76,-13 -124,12 60,9 93,-24 134,11l-129 23c92,-18 75,0 159,1 -36,11 -371,10 -410,1 38,0 68,-2 105,-5 30,-1 67,3 89,-17 -80,5 -139,15 -217,-3 42,-8 66,10 105,-22 -72,5 -73,21 -147,-7 16,5 33,-6 64,-8 30,-2 42,4 75,2zm-838 -42c100,1 164,-62 417,-26 277,40 508,239 405,485 -187,451 -1267,308 -1094,-214 36,-109 133,-179 245,-227 -31,-45 -15,-7 -149,-3l-34 14c25,25 2,13 40,24 34,10 24,-6 25,-6 -40,2 -78,-7 -117,3 -137,35 31,-7 -111,7 -100,10 -34,-6 -196,-12 19,19 129,9 129,9 43,-13 12,7 41,-27 -110,23 -73,3 -161,4 63,-21 104,-13 140,-24l-123 6c36,-24 35,-16 78,-11 -36,-22 -40,-12 -63,-10l66 -2c-20,-18 -5,-11 -36,-22 -34,-11 -5,-4 -16,4 61,-58 505,-25 608,-14 -40,-7 -42,7 -76,12l-253 13c83,8 11,-23 187,8 45,8 -19,4 48,9zm733 1177c24,-15 151,-188 294,-303 370,-296 416,-119 325,-442 -100,-352 -345,-619 -670,-787 -494,-254 -1031,-4 -1305,427 -105,165 -171,307 -212,511 -21,103 -44,139 66,159 263,48 525,111 774,188 99,30 698,248 728,247z"/>
  <path class="fil0 str0" d="M8918 6136c84,0 169,3 252,4 135,0 106,-38 174,37l-1117 2c23,-17 42,-14 81,-15 -27,-1 -59,0 -83,-14 94,-26 542,-15 693,-14zm130 -418c-252,95 -536,234 -752,363 -113,67 -156,32 29,325 77,124 153,224 238,327 59,71 53,110 167,104 260,-13 489,27 722,128 276,121 559,345 709,548 22,29 38,49 59,78l161 259c26,32 62,26 75,-8 5,-12 14,-218 21,-263 19,-125 51,-126 -33,-192 -27,-22 -44,-41 -73,-63 -148,-114 -497,-490 -621,-646 -166,-208 -330,-421 -469,-651l-155 -265c-23,-41 -32,-61 -78,-44z"/>
  <path class="fil0 str0" d="M8509 15687c-14,12 -21,7 -6,82 49,251 244,1253 278,1346 24,63 322,159 391,186 64,25 549,201 582,167 28,-29 -111,-534 -129,-610l-168 -785c-15,-74 -28,-70 -100,-88 -199,-50 -394,-117 -582,-194 -42,-18 -242,-122 -266,-104z"/>
  <path class="fil0 str0" d="M3608 22689c58,3 93,15 157,9 48,-4 92,-10 146,-10 107,-2 202,16 315,12 -59,154 20,63 -419,89 -101,6 -199,-12 -283,-7 -111,6 -181,12 -294,1 -52,-5 -95,-1 -147,-1 -71,1 -88,10 -107,-45 100,-1 184,-19 296,-22 106,-3 214,8 316,3 -55,-28 -162,2 -232,-2l-383 -14 635 -13zm-561 -465c-13,41 -106,497 -99,524 12,50 294,217 371,270 118,81 242,203 347,291 50,42 280,275 389,227 40,-23 77,-274 86,-316 36,-159 218,-947 207,-1001 -57,-21 -532,12 -636,14 -108,1 -222,-1 -330,-3 -102,-2 -238,-17 -335,-6z"/>
  <path class="fil0 str0" d="M10215 21598c138,12 813,67 895,43 7,-41 -270,-737 -324,-885 -32,-89 -78,-232 -115,-302 -169,-35 -432,-42 -620,-64 -360,-44 -342,-91 -220,232l282 734c28,69 70,188 102,242z"/>
  <path class="fil0 str0" d="M6550 11988c-165,41 -340,123 -516,167l-415 99c-71,15 -68,27 -82,97 -76,372 -122,616 -214,980 -12,50 -43,116 30,106 169,-22 776,-338 944,-431 120,-67 90,-31 129,-207l154 -705c11,-46 35,-122 -30,-106z"/>
  <path class="fil0 str0" d="M9739 5549c8,-42 39,-52 90,-55l441 -2c101,0 493,-11 561,9 -15,22 -4,19 -16,48 -120,0 -974,12 -1076,0zm-32 -30c11,112 405,630 490,733 107,131 311,366 436,476 29,25 56,47 83,74 111,116 81,83 221,-29 67,-54 81,-51 51,-159 -68,-245 -119,-557 -131,-811 -4,-97 7,-418 -10,-473 -83,-29 -487,34 -599,53 -101,17 -487,70 -541,136z"/>
  <path class="fil0 str0" d="M10159 8397c75,-4 117,-7 174,10 -34,33 -57,24 -107,34 -49,9 -75,11 -67,-44zm-2655 182c23,-20 17,-7 26,-50 47,-219 15,-170 128,-437 109,-259 365,-549 611,-687 498,-278 1065,-131 1419,225 243,244 358,429 440,776 20,87 56,74 188,40 77,-20 50,-61 32,-134 -75,-314 -222,-580 -435,-791 -146,-145 -270,-251 -469,-349 -542,-266 -1083,-172 -1537,205 -297,247 -522,637 -599,1036 -10,53 -39,134 15,156 43,17 148,29 181,10z"/>
  <path class="fil0 str0" d="M9293 15311c37,-44 -16,-208 -26,-272 -43,-254 -93,-644 -136,-852 -95,-47 -243,-91 -350,-140 -203,-92 -303,-144 -486,-248 -104,-59 -81,25 -69,111l116 879c6,50 1,66 34,92 93,74 845,482 917,430z"/>
  <path class="fil0 str0" d="M4949 14935c116,34 806,-201 937,-255 170,-71 128,-5 214,-395 175,-796 242,-489 -781,-194 -233,68 -180,4 -261,347 -21,89 -119,433 -109,497z"/>
  <path class="fil0 str0" d="M9031 13467c16,-66 -32,-415 -41,-509 -32,-338 8,-245 -213,-353 -190,-93 -429,-243 -594,-380 -22,-18 -64,-66 -92,-35 -7,7 14,713 56,762 16,18 131,100 161,122 77,58 619,414 723,393z"/>
  <path class="fil0 str0" d="M10038 8858c172,-95 301,-63 515,-64 91,-1 497,-32 532,35 -56,42 -912,35 -1047,29zm1070 -6c7,-79 -52,-77 -123,-99 -362,-112 -810,-46 -1115,168 -399,279 -706,781 -552,1436 8,37 63,276 128,174 17,-26 8,-78 8,-110 0,-392 146,-709 379,-1002 190,-239 537,-450 866,-517 142,-28 376,-31 409,-50z"/>
  <path class="fil0 str0" d="M8890 11943c29,-54 -31,-794 -36,-925 -4,-124 12,-121 -112,-129 -825,-52 -706,-109 -702,203 1,119 8,104 62,177 125,167 320,371 488,496 48,36 249,201 300,178z"/>
  <path class="fil0 str0" d="M10291 23617c52,-16 19,-3 33,-24 -78,-37 -563,-14 -693,-16 -238,-5 -474,-10 -713,-10 -238,0 -473,2 -712,9 -426,11 -964,-39 -1399,-7 -247,18 -462,-2 -696,-6 -336,-5 -724,-8 -1058,10 -82,5 -308,-8 -316,25 65,22 171,-23 228,25l-230 3c23,-6 59,-3 87,-4l84 8c3,1 7,7 9,4 2,-3 7,3 10,5l-202 0c41,37 266,19 320,20 40,1 35,2 67,9 27,7 38,7 68,8 669,19 1373,-5 2043,-5 803,0 1571,11 2368,6 24,0 124,11 138,-27 2,-7 6,-7 8,-10 -303,0 -605,-11 -911,-11 -118,0 -863,15 -907,4 182,-7 378,1 562,1 184,-1 372,-13 555,-10 188,3 976,34 1095,-3 -439,-8 -881,11 -1315,-2 -305,-8 -668,-12 -974,-1 -64,2 -275,21 -319,-9 234,-4 472,2 706,3 229,0 464,-13 691,-8 227,4 1233,34 1373,-9 11,13 32,-18 0,22z"/>
  <path class="fil0 str0" d="M11275 6795c34,-19 35,-41 85,-46 39,-3 94,1 135,0 99,-4 150,-4 251,-1 -14,24 -61,40 -85,43l-386 4zm-661 1608c46,19 157,37 218,15 65,-131 50,-506 55,-668 12,-412 278,-660 609,-847 253,-144 275,-39 279,-264 1,-69 -4,-108 -78,-82 -520,182 -1000,549 -1045,1143 -9,121 5,241 -2,365 -6,96 -45,258 -36,338z"/>
  <path class="fil0 str0" d="M17121 6227l63 3c-17,-15 -209,1 -233,3l360 46c-96,24 -152,-6 -212,23 -3,1 -7,3 -9,5l259 3c29,-1 12,6 23,-5 -71,17 -175,2 -251,1 -88,-1 -169,13 -252,11 -47,-1 -66,-7 -114,-4 -42,2 -81,6 -126,4 -106,-5 -157,10 -265,-11l58 -12c-92,-10 -165,-4 -251,-9 -78,-5 -177,-20 -252,-22l238 -4c-13,0 -29,-2 -41,-3 -80,-7 -181,-1 -245,-13 55,40 448,-22 547,-9 -116,-14 -171,6 -282,5 -91,-1 -193,-14 -290,-18 61,31 229,-9 311,-9 118,1 211,26 336,15 54,-4 100,-11 157,-10l471 10zm-1222 -260c-84,23 -147,97 -114,207 27,93 94,121 207,128 595,38 1138,120 1708,273 44,12 101,22 92,-37 -5,-35 -62,-59 -93,-78 -75,-45 -139,-82 -213,-122 -149,-80 -291,-140 -461,-200 -164,-58 -342,-105 -524,-135 -117,-19 -503,-63 -602,-36z"/>
  <path class="fil0 str0" d="M7189 9005c25,16 462,75 507,83 287,49 671,158 946,248 74,25 392,159 431,144 36,-18 12,5 34,-34 23,-40 56,-120 50,-165 -123,-78 -762,-282 -940,-313 11,8 14,20 31,24 -182,9 -169,-14 -262,-16 -80,-2 -188,18 -247,10l352 -9c-15,-22 -8,-34 -71,-42 -73,-11 -205,-18 -275,-10 -225,29 -170,-30 -365,4 -160,28 -160,-37 -420,7l-283 4c-255,1 -491,-6 -744,-12 -123,-2 -255,-3 -377,5 -58,3 -129,2 -183,9 -85,9 -21,9 -78,52l-15 9c-21,15 -4,-3 -23,16l162 4c20,-2 30,-12 63,-10 264,14 186,-12 475,-48 51,-6 79,-17 129,-16 103,3 199,-21 392,-10l262 27c89,3 167,9 259,9 123,1 162,-14 253,22 -4,1 -8,-2 -10,1 -10,19 -8,2 -20,3 -15,2 -6,-1 -33,4z"/>
  <path class="fil0 str0" d="M9333 5656c4,-33 32,-31 67,-33 87,-3 78,8 92,19 -55,48 -118,43 -159,14zm1241 1562c31,-23 51,-70 73,-107 63,-107 27,-72 -190,-291 -118,-119 -241,-239 -353,-381 -245,-310 -401,-507 -597,-868 -55,-6 -109,16 -158,32 -85,28 -59,69 -28,121 209,344 457,738 740,1020 78,78 184,206 286,300 37,34 72,59 106,93 36,37 63,83 121,81z"/>
  <path class="fil0 str0" d="M5816 11566c92,18 875,-285 939,-333 41,-32 85,-298 73,-344 -71,-18 -299,17 -390,27 -211,22 -413,164 -504,355 -31,65 -129,238 -118,295z"/>
  <path class="fil0 str0" d="M4493 24594c249,85 789,27 1084,27l1628 39c-331,1 -639,-6 -966,10 134,22 507,34 668,31 61,-1 162,-13 208,-4l-636 16c358,10 491,14 838,6 -78,35 -222,2 -315,2l-399 14c161,16 609,1 655,11l-427 24c40,19 1239,29 1306,0l56 -15c-221,-19 -451,4 -666,-8l616 -10c179,1 77,-30 161,-23 -63,-9 -156,2 -182,-2l-37 -13c-2,-4 -6,-3 -9,-5 61,-3 122,-2 183,-2 121,-1 69,-5 139,-23l-520 -5c82,10 198,1 286,1 49,0 98,-1 147,0 63,0 97,13 136,-25l-111 -5c28,-18 62,-3 101,-4 31,-1 60,-11 77,-17 -44,-8 -193,-16 -232,-7 -95,22 -140,-3 -191,0 -31,1 -45,6 -61,22l163 -10c-38,34 -76,18 -175,17 -294,-1 -177,17 -273,27l-253 1c-247,-16 -479,-20 -733,-21 79,-21 280,4 354,-13l15 -6c-146,-63 -672,-29 -850,-37 -131,-5 -265,-9 -397,-7l-1388 14z"/>
  <path class="fil0 str0" d="M6048 24191c83,-4 211,11 304,11 97,1 194,3 291,3 -41,-16 -289,-2 -324,21l117 13c136,41 335,3 411,30 15,6 -11,8 25,13 -46,-1 -111,-5 -143,15 78,8 180,-9 246,14l-126 5c25,-3 113,23 159,30 60,10 115,6 182,8l-75 16c112,17 266,53 378,55 80,2 312,-9 359,-46l-107 0c53,-2 132,7 176,-17l-128 -1c86,-1 160,4 225,-28 -69,0 -167,12 -225,-8l267 -8c-87,-29 -262,-6 -362,-8l57 -10c19,-1 44,1 64,2 145,3 222,15 335,-28 -168,-2 -329,5 -493,4 -96,-1 -426,7 -485,-15 201,-9 948,37 1070,-24 -81,0 -249,14 -313,-8 87,-4 175,-3 263,-2 82,0 60,0 113,-25 39,-19 52,-8 87,-39l-682 -8c-13,19 -1246,8 -1456,8 -35,0 -70,0 -105,-1 -115,-3 -88,2 -105,28z"/>
  <path class="fil0 str0" d="M14600 6677l151 -5c-12,29 4,82 -63,91 -64,7 -82,-32 -88,-86zm470 -1469l101 3 19 86c-37,-1 -112,-1 -147,-15l27 -74zm-497 1401c0,81 15,215 139,168 78,-29 64,-118 66,-210 9,-359 153,-545 299,-808 36,-64 277,-588 32,-570 -93,6 -89,90 -108,180 -31,148 -87,287 -162,393 -151,214 -264,517 -266,847z"/>
  <path class="fil0 str0" d="M9589 23735c156,0 153,-19 237,-20l-2186 -2c-301,0 -640,25 -935,4 -155,-12 -1317,-35 -1546,-13 -166,16 -267,22 -445,18 2,2 6,3 8,4 87,30 928,10 1135,10l-1145 17c-2,-2 -6,4 -8,8l1040 -3c-337,14 -695,5 -1039,7 24,15 56,12 86,12l2085 0c148,2 298,9 450,11 302,3 605,-11 901,-11l660 11c136,0 422,2 557,-11l56 -10c2,-3 6,-1 8,-3l-724 -1 785 -23c-18,-1 -45,0 -64,0 -38,1 -77,0 -115,0l-606 0 805 -5z"/>
  <path class="fil0 str0" d="M3115 22016c75,39 1202,23 1279,-18 30,-20 23,-38 37,-101 10,-47 25,-70 13,-119 -67,-17 -644,23 -774,23 -133,0 -265,-1 -398,-6 -100,-4 -111,-22 -132,68 -11,46 -40,110 -25,153z"/>
  <path class="fil0 str0" d="M11435 22445c-29,100 -26,77 -149,78 -78,1 -153,1 -231,-2 -93,-3 -307,20 -423,4 21,-20 3,-10 36,-20 8,-3 31,-4 41,-5 -52,-18 13,-9 -38,-34l-58 -15c-2,-3 -6,-2 -8,-3l409 2 421 -5zm-680 373c129,2 521,-172 656,-268 43,-31 60,-63 39,-121 -14,-39 -32,-110 -65,-123l-813 -33c-37,0 -57,-7 -56,33 0,4 199,476 239,512z"/>
  <path class="fil0 str0" d="M3754 19661c75,41 1046,9 1166,-21 14,-28 40,-133 46,-175 11,-85 -72,-54 -143,-49 -382,24 -598,18 -965,20 -89,1 -63,5 -102,132 -11,38 -23,65 -2,93z"/>
  <path class="fil0 str0" d="M11169 6452l187 -9c-5,53 -63,51 -145,44 -53,-4 -35,7 -42,-35zm12 115c59,8 162,-61 197,-95 6,-62 -37,-201 -49,-273 -16,-96 -28,-187 -37,-284 -10,-107 -14,-205 -16,-312 -1,-94 23,-222 -13,-290 -267,-41 -216,39 -221,175 -6,132 3,267 12,398 9,123 68,615 127,681z"/>
  <path class="fil0 str0" d="M11772 6317c16,-56 -6,-408 -11,-494 -5,-84 -11,-167 -15,-251 -10,-230 89,-240 -199,-253 -99,-5 -76,51 -78,137 -7,290 7,518 65,801 13,63 5,140 82,127 42,-6 130,-33 156,-67z"/>
  <path class="fil0 str0" d="M6333 13215c-58,11 -236,119 -312,154 -216,98 -428,193 -658,264 -76,23 -115,21 -134,96 -54,212 -106,250 320,89 270,-102 389,-152 648,-273 80,-38 75,-44 95,-136 14,-61 33,-132 41,-194z"/>
  <path class="fil0 str0" d="M4368 17203c-13,48 -57,171 -41,217 3,1 7,0 8,4 2,3 6,3 9,3l70 3c222,-19 377,-32 605,-67 114,-17 219,-37 330,-56 75,-14 92,-7 108,-82 12,-58 34,-116 26,-175 -45,-14 -441,73 -533,87 -163,26 -453,31 -582,66z"/>
  <path class="fil0 str0" d="M4841 15386c155,26 797,-167 995,-232 93,-30 78,-15 98,-112 62,-289 70,-152 -610,18 -112,27 -220,52 -337,71 -87,14 -103,4 -122,89 -12,53 -38,119 -24,166z"/>
  <path class="fil0 str0" d="M4167 24253l10 19c2,42 -42,27 44,38 -2,-1 -5,-35 -51,14l58 -3c-41,6 -28,-4 -51,21l49 103c327,24 680,-4 1006,8 -114,-23 -815,12 -985,14 121,59 1452,-20 1529,21 -101,17 -539,-5 -736,6l-768 3c13,7 4,4 27,10 8,1 33,4 41,5 218,17 383,-8 535,-1 205,9 396,-5 593,2 -38,28 -56,22 -112,31 -177,27 -677,-33 -1000,11 175,18 460,17 645,10l-43 14c300,17 598,-10 891,-20 230,-7 375,31 671,4 79,-7 161,0 238,-8 -76,-9 -158,1 -234,-6 -224,-22 -646,5 -675,0 -32,-5 -30,-10 -46,-25 31,-15 125,-14 161,-14 124,-1 454,6 533,-6l-365 -10 223 -16c-25,18 -109,-12 -153,-18 -161,-22 -484,26 -551,-4 58,-19 143,-9 209,-7l214 -10c-161,-7 -290,-21 -455,-21 -158,0 -326,-6 -482,2 -238,13 -446,11 -665,-46 -127,-33 -57,-90 -133,-109 59,-20 24,-11 23,-16 -52,-15 -139,-6 -195,4z"/>
  <path class="fil0 str0" d="M6663 11484c-89,25 -200,82 -295,115 -104,37 -209,71 -313,106 -345,117 -327,15 -398,222 -16,47 -64,133 18,123 76,-9 251,-60 327,-83 155,-46 482,-147 618,-209 58,-27 50,-72 66,-144 10,-47 49,-150 -23,-130z"/>
  <path class="fil0 str0" d="M8069 11571c-32,21 -12,142 -11,191 3,112 -2,106 63,159l242 208c42,33 509,349 559,318 36,-22 10,-148 5,-191 -8,-74 -47,-78 -109,-111 -189,-104 -358,-238 -517,-373 -42,-36 -70,-75 -109,-111 -57,-53 -95,-109 -123,-90z"/>
  <path class="fil0 str0" d="M8415 15154c-30,26 2,127 9,170 13,86 7,95 80,132 91,46 181,86 276,132 56,27 562,229 599,195 30,-28 -4,-122 -11,-165 -15,-87 -26,-78 -108,-102 -229,-68 -501,-191 -709,-308 -30,-16 -111,-75 -136,-54z"/>
  <path class="fil0 str0" d="M9096 13951c8,-57 -7,-125 -16,-183 -11,-80 -37,-70 -107,-102 -100,-45 -188,-86 -283,-136 -151,-78 -260,-142 -395,-234 -160,-109 -139,-87 -121,132 7,90 22,88 84,126 144,87 721,428 838,397z"/>
  <path class="fil0 str0" d="M11083 7765c162,46 496,-224 598,-458 20,-47 104,-249 55,-289 -42,-34 -457,191 -589,458 -37,74 -83,203 -64,289z"/>
  <path class="fil0 str0" d="M9876 17935c14,-41 -13,-103 -25,-151 -20,-84 -11,-82 -95,-103 -107,-27 -208,-56 -311,-88 -99,-31 -190,-63 -291,-97 -311,-104 -324,-175 -269,59 19,78 7,99 77,124 100,35 190,71 295,103 99,31 547,182 619,153z"/>
  <path class="fil0 str0" d="M8518 10016c-24,-15 -58,-13 -95,-17 -21,33 -1,12 -38,23 -43,12 -279,-12 -321,-19 -116,-23 -619,-18 -747,-11l-381 16c66,22 203,2 282,-1 -45,18 -543,30 -633,32 65,-13 285,9 375,10 112,0 298,-25 393,-3 -210,5 -1112,-2 -1221,58 94,18 1303,14 1425,14 237,-1 475,2 712,-1 119,-1 237,-2 356,-3 60,0 119,-1 178,-2 52,0 139,9 170,-15 -24,-13 -208,-31 -255,-38 -79,-13 -215,1 -302,0 35,-28 107,-29 130,-18 -48,-6 -74,2 -115,-18l27 -4c43,-2 16,9 60,-3z"/>
  <path class="fil0 str0" d="M6048 24191c17,-26 -10,-31 105,-28 35,1 70,1 105,1 210,0 1443,11 1456,-8l-684 -3c9,-6 4,-5 25,-10l701 -5c35,0 691,9 722,-6l-1636 -15c262,30 580,-22 840,-10 207,10 642,33 828,-2 -156,-7 -314,-11 -471,-9 -153,1 -323,16 -472,7 -158,-10 -313,-13 -471,-12 -153,2 -330,20 -476,14 21,-19 -3,-5 26,-16 28,-10 426,-5 460,-5l985 5c111,-9 404,37 482,-8 -89,-4 -172,-11 -262,-7 -281,10 -328,-13 -629,9 -34,2 -196,-24 -366,-17 -93,4 -140,26 -181,10 -1,0 -4,-2 -5,-3 -2,0 -56,-13 -265,-10 -172,2 -157,21 -230,23l-1887 -2c-33,32 -62,27 -109,22l89 2c19,5 20,6 29,12l-101 3c-24,5 -14,3 -24,9 65,25 177,8 254,7 166,-3 293,31 523,7 89,-9 153,2 241,4l386 -8c363,28 340,-3 624,-1l-47 14c-263,6 -511,-6 -806,5 4,3 7,5 11,6l114 25c38,3 84,7 116,0z"/>
  <path class="fil0 str0" d="M8774 8060c-84,9 -159,29 -223,66 -212,123 -14,354 366,315 136,-14 382,-105 279,-256 -68,-100 -267,-140 -422,-125z"/>
  <path class="fil0 str0" d="M9657 20147c98,24 846,116 926,98 14,-47 -13,-91 -32,-144 -29,-83 -15,-88 -113,-98l-739 -87c-129,-19 -144,-33 -42,231z"/>
  <path class="fil0 str0" d="M14290 10714c62,-5 54,-88 48,-188 -4,-71 -13,-140 -32,-202 -70,-228 -197,-399 -395,-527 -57,-37 -266,-141 -348,-117 -70,21 -59,120 -8,148 47,27 106,46 158,73 498,268 531,757 577,813z"/>
  <path class="fil0 str0" d="M10324 23853l73 9c-56,13 -142,0 -172,40 59,40 84,-2 129,10 -89,0 -198,-11 -288,12l92 20c-44,23 -89,-9 -167,6 -37,7 -48,5 -87,8 -41,4 -40,12 -76,19 -75,15 -280,26 -334,49l-102 25c72,8 231,-7 275,8 -79,15 -334,-7 -382,19l-55 16c111,25 261,-3 362,7 -99,49 -361,-17 -468,30l213 12c36,2 71,-7 106,-7 34,0 67,7 104,7l644 -24c-123,-23 -355,26 -463,-15 77,-6 72,-2 135,7 58,7 87,-5 135,-11 84,-11 192,1 277,-5 -50,-6 -88,4 -128,-11 67,1 132,10 196,-8 -63,-41 -442,8 -518,-17l18 -7c62,-18 -48,8 19,-6 75,-15 237,-11 240,-8 1,2 0,-1 -3,3 -24,32 -22,-21 -7,6 140,2 321,16 409,-50 -46,-3 -96,5 -129,-10l157 -5c-66,-10 -208,7 -241,-7l212 -6 -52 -22c-11,-2 -41,-2 -53,-1 -49,4 -64,11 -117,6 51,-18 263,-17 317,-10 2,-2 4,-9 5,-7l70 -53c-3,-2 -7,-6 -8,-3 -2,2 -11,-5 -16,-6 -22,-8 -10,0 -33,-11l86 -4c-32,-38 5,-12 -41,-28l-147 -2c-96,0 -101,-8 -187,25z"/>
  <path class="fil0 str0" d="M13345 5911l-252 9c-37,12 -21,9 -34,18 57,2 99,1 154,-3l126 3c-77,22 -245,-8 -295,20 69,13 83,-11 148,-4 43,4 112,23 140,6l-157 14 145 13c-20,-1 -22,-6 -36,9 -5,5 3,9 -22,24l-56 20c-33,10 -54,15 -97,14 -160,-5 -88,-4 -116,30 58,-12 60,-18 119,-2 -38,6 -31,9 -77,5 -97,-8 -70,10 -186,-12 -19,-4 6,-11 -13,-1 82,-1 102,29 157,-31 -114,0 -231,28 -279,-33 -13,-17 -8,-18 -14,-19l127 -10 124 -32c-95,-4 -145,23 -251,-11 13,7 2,2 12,3l89 -25 -101 -7c44,13 304,-4 401,0 26,1 49,-5 81,-8 54,-4 103,16 163,10zm-450 -221c-87,18 -136,65 -174,113 -38,48 -75,149 -41,218 63,129 503,136 649,-9 57,-57 62,-146 5,-205 -83,-88 -279,-149 -439,-117z"/>
  <path class="fil0 str0" d="M6796 10482c121,6 354,-21 411,15 -143,4 -283,3 -425,3 -62,0 -151,-6 -209,1 -39,4 -40,14 -88,12 -84,-3 -70,-5 -101,23 441,0 893,-8 1330,2 322,8 1022,10 1329,-10 -85,-59 -826,-27 -974,-34 79,-35 460,-1 591,-19 -48,31 -154,-7 -212,-12 -78,-8 -160,4 -232,-2 -274,-24 -674,-46 -948,-3 -124,19 -368,-6 -472,24z"/>
  <path class="fil0 str0" d="M10414 22006l830 -5c7,23 15,30 28,59 -153,2 -303,-9 -448,-9 -129,-1 -204,-13 -324,-21 -56,-4 -53,2 -86,-24zm-77 -175c-24,20 -20,10 -8,51 3,13 16,37 22,53 58,141 24,112 339,132l566 20c69,-11 33,-54 5,-119 -57,-129 -3,-100 -362,-114 -75,-3 -538,-43 -562,-23z"/>
  <path class="fil0 str0" d="M9008 9674c-58,-66 -326,-27 -433,-38l-3071 5c-163,0 -158,-19 -194,37 1059,14 2174,4 3242,2 118,0 352,12 456,-6z"/>
  <path class="fil0 str0" d="M8145 6842c148,-9 180,-25 200,39 -44,17 -121,13 -170,8l-30 -47zm-96 -469c10,13 20,23 29,43 -54,3 -173,14 -215,-6 1,-29 -17,-22 23,-35l163 -2zm-211 1c-3,105 329,558 348,569 41,25 189,-43 215,-65 17,-35 -143,-232 -187,-298l-196 -305c-54,1 -139,74 -180,99z"/>
  <path class="fil0 str0" d="M9654 8598c22,-9 202,-25 212,-23 -63,-8 -107,-1 -177,-12 -80,-13 -109,13 -173,8 -62,-4 -97,-19 -170,-9 -45,5 -127,28 -150,18 71,4 45,10 71,14l-125 13c61,17 99,-1 164,9l-225 12c27,-9 66,-1 89,11 -180,10 -430,66 -585,-21 -63,-35 -277,-53 -337,-51l-513 21c15,26 3,34 76,42 26,3 54,3 82,5 40,4 78,19 145,21 115,2 234,-9 345,-2 -57,29 -263,9 -361,16 7,-2 129,7 139,9 62,7 95,-5 138,-3 21,1 42,10 75,10 19,0 56,-8 65,-8 94,0 -11,5 63,15 17,2 52,0 71,0l4 -10c0,-5 4,-6 6,-9 362,-14 769,2 1119,-6 -120,-6 -282,21 -385,-16l408 -9c0,15 -21,-1 -39,-13l80 -7c-58,-3 -108,-4 -167,-8 -62,-5 -107,10 -167,4 27,-12 313,-5 370,-20l-148 -1z"/>
  <path class="fil0 str0" d="M2973 22702l383 14c70,4 177,-26 232,2 -102,5 -210,-6 -316,-3 -112,3 -196,21 -296,22 19,55 36,46 107,45 52,0 95,-4 147,1 113,11 183,5 294,-1 84,-5 182,13 283,7 439,-26 360,65 419,-89 -113,4 -208,-14 -315,-12 -54,0 -98,6 -146,10 -64,6 -99,-6 -157,-9l-635 13z"/>
  <path class="fil0 str0" d="M13351 10307c0,-1 2,-4 2,-5l10 -17c43,-2 30,2 69,11 0,3 -2,7 -2,8 -2,3 -10,27 -18,15 111,10 64,6 99,35l59 36c-57,10 -181,16 -220,3 -15,-48 -17,-22 -1,-75l1 -7c1,-1 1,-3 1,-4zm459 606c79,-103 -77,-383 -124,-441 -31,-39 -253,-264 -342,-194 -107,84 23,160 45,178 31,25 50,40 81,65 106,84 204,161 271,316 23,55 15,78 69,76z"/>
  <path class="fil0 str0" d="M16650 6217c-57,-1 -103,6 -157,10 -125,11 -218,-14 -336,-15 -82,0 -250,40 -311,9 97,4 199,17 290,18 111,1 166,-19 282,-5 -99,-13 -492,49 -547,9 64,12 165,6 245,13 12,1 28,3 41,3l-238 4c75,2 174,17 252,22 86,5 159,-1 251,9l-58 12c108,21 159,6 265,11 45,2 84,-2 126,-4 48,-3 67,3 114,4 83,2 164,-12 252,-11 76,1 180,16 251,-1 -11,11 6,4 -23,5l-259 -3c2,-2 6,-4 9,-5 60,-29 116,1 212,-23l-360 -46c24,-2 216,-18 233,-3l-63 -3 -471 -10z"/>
  <path class="fil0 str0" d="M13673 5228c-116,11 -296,-1 -391,17 39,-15 158,18 214,19 79,1 157,-2 236,0l-121 20c-3,1 -7,3 -10,4 138,13 637,33 775,19l50 -22 -199 -21c51,-2 195,13 223,-23 -207,-2 -431,-3 -636,-15 24,8 617,0 638,-10 -41,-20 -1171,-8 -1312,-5 168,30 357,11 533,17z"/>
  <path class="fil0 str0" d="M13109 6054c43,1 64,-4 97,-14l56 -20c25,-15 17,-19 22,-24 14,-15 16,-10 36,-9l-145 -13 157 -14c-28,17 -97,-2 -140,-6 -65,-7 -79,17 -148,4 50,-28 218,2 295,-20l-126 -3c-55,4 -97,5 -154,3 13,-9 -3,-6 34,-18l252 -9c-60,6 -109,-14 -163,-10 -32,3 -55,9 -81,8 -97,-4 -357,13 -401,0l101 7 -89 25c-10,-1 1,4 -12,-3 106,34 156,7 251,11l-124 32 -127 10c6,1 1,2 14,19 48,61 165,33 279,33 -55,60 -75,30 -157,31 19,-10 -6,-3 13,1 116,22 89,4 186,12 46,4 39,1 77,-5 -59,-16 -61,-10 -119,2 28,-34 -44,-35 116,-30z"/>
  <path class="fil0 str0" d="M9739 5549c102,12 956,0 1076,0 12,-29 1,-26 16,-48 -68,-20 -460,-9 -561,-9l-441 2c-51,3 -82,13 -90,55z"/>
  <path class="fil0 str0" d="M10038 8858c135,6 991,13 1047,-29 -35,-67 -441,-36 -532,-35 -214,1 -343,-31 -515,64z"/>
  <path class="fil0 str0" d="M9002 7866c18,-21 57,-4 89,2 118,22 55,3 58,22l0 14c64,9 47,-12 42,8 58,15 64,-1 123,-2 -14,5 -16,4 -30,9 -3,2 -6,3 -10,4 -4,2 -6,3 -10,5 -4,1 -7,3 -10,4 -4,2 -7,3 -11,5 63,11 130,-7 158,9 -33,2 -45,-4 -75,-2 -31,2 -48,13 -64,8 74,28 75,12 147,7 -39,32 -63,14 -105,22 78,18 137,8 217,3 -22,20 -59,16 -89,17 -37,3 -67,5 -105,5 39,9 374,10 410,-1 -84,-1 -67,-19 -159,-1l129 -23c-41,-35 -74,-2 -134,-11 48,-25 66,-11 124,-12l-95 -8c41,-32 20,-12 39,-16 47,-8 24,-2 32,5 -32,-18 -50,-8 -92,-6l20 -12c2,-1 6,-3 9,-5 2,-1 6,-2 8,-3 1,-1 22,-5 24,-6 -2,-30 -10,-20 -56,-29l43 -5c-44,-18 -77,-29 -142,-19 -73,11 -80,-12 -156,-3 -100,12 -242,-5 -329,15z"/>
  <path class="fil0 str0" d="M11014 22450l-409 -2c2,1 6,0 8,3l58 15c51,25 -14,16 38,34 -10,1 -33,2 -41,5 -33,10 -15,0 -36,20 116,16 330,-7 423,-4 78,3 153,3 231,2 123,-1 120,22 149,-78l-421 5z"/>
  <path class="fil0 str0" d="M8918 6136c-151,-1 -599,-12 -693,14 24,14 56,13 83,14 -39,1 -58,-2 -81,15l1117 -2c-68,-75 -39,-37 -174,-37 -83,-1 -168,-4 -252,-4z"/>
  <path class="fil0 str0" d="M8536 7922l27 -18c-67,-5 -3,-1 -48,-9 -176,-31 -104,0 -187,-8l253 -13c34,-5 36,-19 76,-12 -103,-11 -547,-44 -608,14 11,-8 -18,-15 16,-4 31,11 16,4 36,22l-66 2c23,-2 27,-12 63,10 -43,-5 -42,-13 -78,11l123 -6c-36,11 -77,3 -140,24 88,-1 51,19 161,-4 -29,34 2,14 -41,27 0,0 -110,10 -129,-9 162,6 96,22 196,12 142,-14 -26,28 111,-7 39,-10 77,-1 117,-3 -1,0 9,16 -25,6 -38,-11 -15,1 -40,-24l34 -14c134,-4 118,-42 149,3z"/>
  <path class="fil0 str0" d="M10414 22006c33,26 30,20 86,24 120,8 195,20 324,21 145,0 295,11 448,9 -13,-29 -21,-36 -28,-59l-830 5z"/>
  <path class="fil0 str0" d="M13098 9905l0 20c0,1 0,3 0,4 -1,1 -8,2 -10,5 67,17 55,7 117,6 -25,13 -75,9 -117,14 -6,9 -24,-12 7,3l23 12c3,1 7,3 10,5l-54 7c38,20 323,17 373,3l-106 -15 55 -14c-68,-11 -78,-6 -143,-5l120 -13c-30,-14 -30,-9 -70,-10 75,-8 34,-6 55,-26l-260 4z"/>
  <path class="fil0 str0" d="M10496 23760l103 18c-47,-9 -92,-16 -134,6 39,7 97,7 122,11l-154 -4c8,20 53,26 78,26 50,1 198,8 218,-20 22,-48 -7,37 0,-16 5,-30 11,-12 43,-55l-231 -1c-28,6 -36,7 -45,35z"/>
  <path class="fil0 str0" d="M11820 22487c-12,-28 -15,21 4,-10 21,-34 16,17 7,-8l-93 -2 0 88c66,29 141,17 221,8 0,-62 11,-68 -41,-72 3,-3 7,-10 8,-8l22 -18c-63,-12 -72,14 -128,22z"/>
  <path class="fil0 str0" d="M10586 23451c28,29 8,17 53,21 -60,-12 -29,6 -38,15l116 13c-3,5 -8,3 -10,6 -8,17 -7,2 -19,5 -14,2 -15,1 -30,4 -25,6 -26,8 -41,20 38,31 152,19 217,14 -15,-25 1,-3 -18,-23l-29 -22 23 -15c15,-13 4,2 17,-18l-75 -5c36,10 53,-4 70,-22 -60,-6 -181,-14 -236,7z"/>
  <path class="fil0 str0" d="M2514 22729l76 28c-39,6 -31,13 -84,16 28,14 9,10 49,8 -86,5 -32,3 -53,30l49 2c-41,-34 -41,13 -43,15l199 7 1 -40c-6,-15 -7,-11 -8,-12l-65 -16c15,-17 60,-9 72,-21 30,-29 -20,-30 -38,-32 -30,-3 -135,7 -155,15z"/>
  <path class="fil0 str0" d="M2518 22856c7,27 2,13 14,40 1,2 2,4 3,7l15 23c54,3 47,17 104,3 16,28 14,-20 -2,9 -23,40 -11,-18 -8,10 44,0 92,-14 154,-15 -90,-37 -29,-3 -45,-38 -34,-74 -103,-47 -235,-39z"/>
  <path class="fil0 str0" d="M13287 11539l-32 0 -45 1 -35 49 360 9 -17 -58c-45,-14 -158,-1 -231,-1z"/>
  <path class="fil0 str0" d="M11275 6795l386 -4c24,-3 71,-19 85,-43 -101,-3 -152,-3 -251,1 -41,1 -96,-3 -135,0 -50,5 -51,27 -85,46z"/>
  <path class="fil0 str0" d="M11768 10086c-109,-1 -216,-32 -199,71 6,36 20,49 73,46l63 -46 -29 -13c54,-11 72,-18 104,-55 1,-1 3,-4 5,-6l14 -18c-10,7 -14,-15 -29,14 0,1 -1,5 -2,7z"/>
  <path class="fil0 str0" d="M13363 10285l-10 17c0,1 -2,4 -2,5 0,1 0,3 -1,4l-1 7c-16,53 -14,27 1,75 39,13 163,7 220,-3l-59 -36c-35,-29 12,-25 -99,-35 8,12 16,-12 18,-15 0,-1 2,-5 2,-8 -39,-9 -26,-13 -69,-11z"/>
  <path class="fil0 str0" d="M14600 6677c6,54 24,93 88,86 67,-9 51,-62 63,-91l-151 5z"/>
  <path class="fil0 str0" d="M15043 5282c35,14 110,14 147,15l-19 -86 -101 -3 -27 74z"/>
  <path class="fil0 str0" d="M8175 6889c49,5 126,9 170,-8 -20,-64 -52,-48 -200,-39l30 47z"/>
  <path class="fil0 str0" d="M7863 6410c42,20 161,9 215,6 -9,-20 -19,-30 -29,-43l-163 2c-40,13 -22,6 -23,35z"/>
  <path class="fil0 str0" d="M12545 7029c55,-2 32,-2 76,-21 0,0 3,0 4,-1 0,-1 2,-1 3,-5l-158 5c0,38 -2,-22 10,19l-1 22c-10,40 -9,-2 1,47l63 3c67,-87 23,-29 11,-65 -1,-4 -6,-2 -9,-4z"/>
  <path class="fil0 str0" d="M13696 11532l186 1 -5 -55 -119 -3c-22,19 -49,42 -62,57z"/>
  <path class="fil0 str0" d="M10488 22875c24,-6 0,2 24,-9 1,-1 5,-2 6,-6 1,-3 4,-4 6,-6 -48,-22 -143,-10 -203,-9 6,28 15,36 24,58l143 -28z"/>
  <path class="fil0 str0" d="M11169 6452c7,42 -11,31 42,35 82,7 140,9 145,-44l-187 9z"/>
  <path class="fil0 str0" d="M10159 8397c-8,55 18,53 67,44 50,-10 73,-1 107,-34 -57,-17 -99,-14 -174,-10z"/>
  <path class="fil0 str0" d="M9333 5656c41,29 104,34 159,-14 -14,-11 -5,-22 -92,-19 -35,2 -63,0 -67,33z"/>
  <path class="fil0 str0" d="M18438 6978l129 -4c-14,-28 -20,-35 -32,-47l-83 7 -14 44z"/>
  <path class="fil0 str0" d="M14675 5186l105 -6 -33 -55c-56,2 -64,11 -72,61z"/>
 </g>
</svg>
